<?xml version="1.0" encoding="UTF-8"?>
<svg version="1.1" xmlns="http://www.w3.org/2000/svg" width="609" height="588">
<path d="M0 0 C2.85298573 1.26799366 4.47771239 2.24268296 6.25 4.8125 C7.17590345 7.51305173 7.61486075 10.17564549 8 13 C14.83778291 12.55629682 19.93932407 10.48083772 26.0625 7.5 C31.75528291 4.74115697 36.64663942 2.48275196 43 2 C42.72463145 17.42063864 31.47202264 37.83150079 21 49 C13.08637236 56 13.08637236 56 10 56 C10.25548332 85.40634893 10.25548332 85.40634893 11.9375 114.75 C12.01210449 115.59570557 12.08670898 116.44141113 12.16357422 117.31274414 C13.09417479 126.50742036 14.28427526 134.22046789 21 141 C26.93813707 144.7567806 32.46065948 145.12512074 39.3684082 145.14526367 C40.09492584 145.14862228 40.82144348 145.1519809 41.56997681 145.15544128 C43.98026244 145.16495188 46.39047797 145.16689771 48.80078125 145.16796875 C50.51385016 145.17119273 52.22691881 145.1745576 53.93998718 145.17805481 C57.55561961 145.18405438 61.17122818 145.185895 64.78686523 145.18530273 C68.40801156 145.18522304 72.02902715 145.19190238 75.65014648 145.20581055 C104.05102355 145.31310345 132.34453453 144.59005463 160.6706543 142.43139648 C180.48528696 140.92338731 200.18973668 140.69000735 220.05322266 140.73925781 C224.72056632 140.75073405 229.3876818 140.74400357 234.05501747 140.73211288 C237.73246917 140.72480393 241.40986877 140.72722168 245.08732224 140.73236847 C246.80684819 140.73367577 248.52637932 140.73216361 250.2458992 140.72740936 C259.45632186 140.70748006 268.56022215 141.00537989 277.73193359 141.89160156 C278.54810968 141.96904476 279.36428577 142.04648796 280.20519447 142.12627792 C302.95878115 144.54017018 324.47893292 158.55690842 341.60546875 172.98828125 C343.41738339 174.51052602 345.28985419 175.96106783 347.1875 177.375 C356.29040386 185.8710436 362.06306719 195.82667982 362.5625 208.3125 C361.77605278 232.12040221 340.85736912 256.48050133 327.45703125 274.9140625 C326.93165771 275.64488037 326.40628418 276.37569824 325.86499023 277.12866211 C324.90027077 278.46169165 323.9201428 279.78375963 322.92211914 281.09204102 C321.47029539 283.01406002 321.47029539 283.01406002 320 286 C321.10740661 291.1571926 324.8872079 294.23719549 328.5390625 297.76171875 C329.17991791 298.39358597 329.82077332 299.02545319 330.48104858 299.6764679 C332.52199764 301.68746106 334.57258123 303.68821907 336.625 305.6875 C338.68362759 307.69838087 340.739961 309.71141024 342.79037476 311.73066711 C344.06516176 312.98561249 345.34486108 314.23559047 346.62979126 315.48014832 C348.12442283 316.94917943 349.567772 318.47006571 351 320 C351 320.66 351 321.32 351 322 C352.32 322.66 353.64 323.32 355 324 C355 324.66 355 325.32 355 326 C355.99 326.33 356.98 326.66 358 327 C359.25163262 329.50326523 359.19867622 331.32830309 359.29711914 334.13061523 C359.33706497 335.21799988 359.3770108 336.30538452 359.41816711 337.42572021 C359.47607674 339.22399261 359.47607674 339.22399261 359.53515625 341.05859375 C359.59989388 342.94714081 359.59989388 342.94714081 359.66593933 344.87384033 C359.80717987 349.06145766 359.93542772 353.24943258 360.0625 357.4375 C360.08457016 358.15145054 360.10664032 358.86540108 360.12937927 359.60098648 C360.83819563 382.56704799 361.21816328 405.52571001 361.24631882 428.50273514 C361.2499758 430.67313557 361.25727849 432.84349764 361.26541138 435.0138855 C361.27941379 439.09657854 361.27410241 443.17900939 361.265625 447.26171875 C361.26958786 448.44880432 361.27355072 449.63588989 361.27763367 450.85894775 C361.19333691 466.21474578 359.73141254 480.78350899 348.75 492.375 C344.89879563 494.65071167 342.42894987 494.36907916 338 494 C336.32602364 492.32602364 336.83552146 490.27441335 336.81030273 488.03759766 C336.81102783 487.34456543 336.81175293 486.6515332 336.8125 485.9375 C336.81258057 485.21868652 336.81266113 484.49987305 336.81274414 483.75927734 C336.87110721 478.12324763 337.44705947 472.69771402 338.21362305 467.11352539 C341.31008258 444.16669593 344.7503909 413.35003375 338 391 C336.37367739 395.52855443 335.3105623 400.04310156 334.44921875 404.765625 C334.31030212 405.50797897 334.1713855 406.25033295 334.02825928 407.0151825 C333.73160937 408.60295295 333.4368296 410.19107376 333.14376831 411.7795105 C332.68188589 414.28039788 332.21395933 416.78008728 331.74438477 419.27954102 C330.35811965 426.66613396 328.98811226 434.05544555 327.640625 441.44921875 C319.06150329 488.06952178 319.06150329 488.06952178 303 506 C299.20331613 508.46784451 295.41007838 508.43931815 291 508 C287.5 507 287.5 507 285 506 C284.47597219 500.34227604 286.21355985 496.7218454 288.6875 491.8125 C289.05472168 491.05275879 289.42194336 490.29301758 289.80029297 489.51025391 C291.30332864 486.40168783 292.83562905 483.31485771 294.43359375 480.25390625 C303.82358386 461.50471289 306.03119621 438.9537803 309.58203125 418.50390625 C309.71093246 417.76505692 309.83983368 417.02620758 309.97264099 416.26496887 C311.49705665 407.3561789 312.20682761 398.66961476 312.25 389.625 C312.270625 388.5525 312.29125 387.48 312.3125 386.375 C312.39864557 368.6720858 303.91029405 355.33676606 293 342 C292.44683105 341.31679688 291.89366211 340.63359375 291.32373047 339.9296875 C285.02044143 332.14604095 278.66802947 324.4346778 271.8671875 317.078125 C266 310.54811715 266 310.54811715 266 308 C265.34 308 264.68 308 264 308 C262.58561594 306.42713316 261.24395599 304.78860004 259.9375 303.125 C255.48522829 297.55787374 250.79823596 292.2684805 246 287 C244.64026652 285.50504441 243.28561547 284.00544081 241.9375 282.5 C241.36902344 281.8709375 240.80054688 281.241875 240.21484375 280.59375 C239 279 239 279 239 277 C234.84093506 278.6274602 231.19913363 280.46258041 227.4375 282.875 C207.8845934 294.77805341 182.91348452 295.97883353 160.5625 297.0625 C159.36581696 297.12361969 159.36581696 297.12361969 158.1449585 297.18597412 C138.77472084 298.17295911 119.39001824 298.61446259 100 299 C97.73013887 317.37221316 96.30121133 335.65958316 95.46484375 354.1484375 C95.34028096 356.75001175 95.2148184 359.35154306 95.08851624 361.95303345 C94.76113374 368.72078207 94.44392539 375.48897631 94.12921143 382.25732422 C93.62473538 393.10438375 93.1089098 403.9508905 92.58603096 414.79707718 C92.40765874 418.53699842 92.23571358 422.27717358 92.06443787 426.01742554 C89.35823508 483.64176492 89.35823508 483.64176492 76.25 496.75 C69.22330694 499.45257425 61.96069424 498.47491351 55 496 C55.52230696 491.34276291 57.65071536 488.19724486 60.25 484.4375 C85.81900334 445.5092115 69.65840865 380.8643625 60.8125 338.125 C59.25949368 330.73857943 57.64977952 323.36536639 56 316 C40.01333796 322.28047437 25.54778693 333.30610206 11.625 343.1875 C11.05378418 343.59162109 10.48256836 343.99574219 9.89404297 344.41210938 C8.78719882 345.20424029 7.68727782 346.00614016 6.59472656 346.81787109 C5.04873551 347.96387365 3.47386819 349.07059877 1.8984375 350.17578125 C-4.5814132 355.68826596 -6.92964324 365.0005138 -9 372.9375 C-9.24854736 373.8749707 -9.49709473 374.81244141 -9.75317383 375.77832031 C-15.47577687 398.05618244 -18.26854564 420.69437071 -20.5546875 443.53515625 C-20.64145752 444.38980469 -20.72822754 445.24445313 -20.81762695 446.125 C-20.9733587 447.67517526 -21.12356244 449.22592333 -21.26635742 450.77734375 C-22.72720882 465.65901103 -22.72720882 465.65901103 -27 471 C-29.9375 473.375 -29.9375 473.375 -33 475 C-35.19140625 474.6015625 -35.19140625 474.6015625 -37 474 C-40.97303391 460.09438131 -38.92768619 444.75576725 -37.8125 430.5 C-37.7478656 429.66083038 -37.6832312 428.82166077 -37.61663818 427.95706177 C-34.30272166 385.7272866 -29.89290454 341.14954903 1.625 310.4375 C5.61863628 306.53080791 9.16699147 302.4846009 12.5625 298.0625 C13.18922607 297.24640259 13.18922607 297.24640259 13.82861328 296.41381836 C17.8246913 291.46608603 17.8246913 291.46608603 18.8203125 285.49609375 C16.73815109 279.16037404 10.74912648 274.68943355 5.75390625 270.5546875 C0.15435928 265.59116925 -4.96499255 259.29638525 -9 253 C-9 252.34 -9 251.68 -9 251 C-9.66 251 -10.32 251 -11 251 C-12.09399414 249.56982422 -12.09399414 249.56982422 -13.28515625 247.5546875 C-13.72859375 246.81468506 -14.17203125 246.07468262 -14.62890625 245.31225586 C-15.10199219 244.50796143 -15.57507813 243.70366699 -16.0625 242.875 C-17.06252873 241.2062675 -18.06384466 239.53830575 -19.06640625 237.87109375 C-19.56414551 237.04077637 -20.06188477 236.21045898 -20.57470703 235.35498047 C-22.49670671 232.17930234 -24.48730875 229.0566255 -26.5 225.9375 C-26.85562012 225.38578125 -27.21124023 224.8340625 -27.57763672 224.265625 C-29.63002249 221.08985689 -31.70587426 217.93040058 -33.79296875 214.77734375 C-48.35244367 192.71827765 -51.95656225 173.03973996 -54.51806641 147.10546875 C-55.51898312 130.36640999 -55.51898312 130.36640999 -61 115 C-66.09560911 111.94263453 -70.89391977 111.00815016 -76.73828125 110.5703125 C-114.04717455 107.59782685 -114.04717455 107.59782685 -121.73046875 99.08203125 C-123.72270151 95.81476953 -123.7186307 92.65007476 -123 89 C-117.36149944 79.86174048 -106.05013362 72.50800696 -97 67 C-96.34 67 -95.68 67 -95 67 C-95 66.34 -95 65.68 -95 65 C-93.66503906 63.87768555 -93.66503906 63.87768555 -91.765625 62.63671875 C-91.05615723 62.16830566 -90.34668945 61.69989258 -89.61572266 61.21728516 C-88.83503418 60.71245605 -88.0543457 60.20762695 -87.25 59.6875 C-86.44739746 59.1620459 -85.64479492 58.6365918 -84.81787109 58.09521484 C-83.10080197 56.97227352 -81.38181901 55.85225426 -79.66113281 54.73486328 C-77.02161039 53.01408839 -74.39626482 51.2734367 -71.7734375 49.52734375 C-47.61068249 33.50251699 -47.61068249 33.50251699 -33 32 C-33 31.34 -33 30.68 -33 30 C-31.3480948 28.31870147 -29.6783131 26.65493827 -28 25 C-26.33628661 22.93506955 -24.71609672 20.86831659 -23.125 18.75 C-22.2500295 17.60154003 -21.37502935 16.45310264 -20.5 15.3046875 C-18.97515245 13.29202778 -17.45530497 11.27580319 -15.9375 9.2578125 C-15.339375 8.47148438 -14.74125 7.68515625 -14.125 6.875 C-13.61195313 6.19179688 -13.09890625 5.50859375 -12.5703125 4.8046875 C-8.68585016 0.34045466 -5.95271657 -0.62660174 0 0 Z " fill="#030303" transform="translate(173,40)"/>
<path d="M0 0 C1.670625 0.061875 1.670625 0.061875 3.375 0.125 C3.375 0.455 3.375 0.785 3.375 1.125 C2.323125 1.351875 1.27125 1.57875 0.1875 1.8125 C-3.7847906 2.91860531 -5.92099637 5.01129885 -8.625 8.125 C-9.285 7.795 -9.945 7.465 -10.625 7.125 C-3.625 0.125 -3.625 0.125 0 0 Z " fill="#393939" transform="translate(169.625,39.875)"/>
</svg>
