<?xml version="1.0" encoding="UTF-8"?>
<svg version="1.1" xmlns="http://www.w3.org/2000/svg" width="601" height="590">
<path d="M0 0 C2.75 -0.3125 2.75 -0.3125 6 0 C9.7221325 3.68695166 11.05524247 7.57162798 12.1875 12.5625 C12.35475586 13.27140381 12.52201172 13.98030762 12.69433594 14.71069336 C14.06930325 20.79307122 14.8162931 26.76195267 15 33 C15.03996094 34.18207031 15.07992188 35.36414063 15.12109375 36.58203125 C15.4917492 57.75299847 10.74082932 80.86310328 -4 97 C-5.62332967 98.38576923 -7.28724465 99.72641268 -9 101 C-11.52286867 103.45979696 -13.97780495 105.97723584 -16.4375 108.5 C-19.17125712 111.16708012 -22.06677446 113.55564538 -25 116 C-26.66807017 117.66526198 -28.33454766 119.33211989 -30 121 C-31.9490763 122.82427169 -33.90431744 124.63706875 -35.875 126.4375 C-36.6628186 127.16308105 -36.6628186 127.16308105 -37.46655273 127.90332031 C-40.256643 130.46079556 -43.09501611 132.90258737 -46.0625 135.25 C-49.40566746 138.0386909 -50.61000667 140.91178433 -52 145 C-47.29351683 143.15432032 -43.92373846 141.25109758 -40 138 C-39.34 138 -38.68 138 -38 138 C-37.731875 137.360625 -37.46375 136.72125 -37.1875 136.0625 C-36 134 -36 134 -33 133 C-32.30144777 131.68309188 -31.63890829 130.34685501 -31 129 C-29.39941406 127.140625 -29.39941406 127.140625 -27.515625 125.25 C-26.82726562 124.5590625 -26.13890625 123.868125 -25.4296875 123.15625 C-24.71039063 122.4446875 -23.99109375 121.733125 -23.25 121 C-22.54617188 120.2884375 -21.84234375 119.576875 -21.1171875 118.84375 C-11.58614038 109.34813428 -11.58614038 109.34813428 -5.75 108.5625 C-4.8425 108.706875 -3.935 108.85125 -3 109 C1.35181303 115.52771954 -0.99334275 125.43694128 -2.23828125 132.8359375 C-3.38202195 137.5868604 -5.09396508 142.04233367 -8 146 C-9.33333333 146.66666667 -10.66666667 147.33333333 -12 148 C-12.29777344 148.6084375 -12.59554688 149.216875 -12.90234375 149.84375 C-14.93845625 153.84351548 -19.05221277 156.11247368 -22.56640625 158.78125 C-25.01657573 160.76281901 -25.01657573 160.76281901 -26.03125 162.95703125 C-25.98435272 166.02294074 -24.64671958 167.672661 -22.9375 170.1875 C-22.28523438 171.16847656 -21.63296875 172.14945313 -20.9609375 173.16015625 C-19.81271525 174.82301995 -18.65539879 176.47979091 -17.4765625 178.12109375 C-9.89961421 188.85859229 -5.06887687 200.95141079 -1.1875 213.4375 C-0.9097876 214.31680176 -0.6320752 215.19610352 -0.34594727 216.10205078 C4.37340325 232.00923224 5.3913449 247.34301526 4.86303711 263.82275391 C4.55276038 274.39885315 5.43777177 283.77280114 8.08447266 294.03540039 C11.21027076 306.50685785 8.4367852 319.07294884 2 330 C-0.66246454 334.39885446 -3.62590865 338.53907885 -6.7734375 342.6015625 C-26.42298241 368.00395627 -33.36197404 394.1417252 -32.90405273 426.16693115 C-32.67693373 443.91704456 -33.6100879 461.50402131 -34.93310547 479.20092773 C-36.56622258 499.01199405 -36.56622258 499.01199405 -34.4453125 518.6796875 C-33.90767983 521.48103668 -33.84624874 524.15560178 -34 527 C-37.22435661 528.07478554 -38.28796755 527.93162085 -41.5 527.1875 C-42.2734375 527.01605469 -43.046875 526.84460938 -43.84375 526.66796875 C-46 526 -46 526 -49 524 C-49.33032155 521.19404571 -49.4654087 518.60028403 -49.4765625 515.7878418 C-49.49925201 514.51128471 -49.49925201 514.51128471 -49.5223999 513.2089386 C-49.55346484 511.35169319 -49.57765043 509.49432326 -49.59588623 507.63690758 C-49.62531947 504.66698337 -49.67289887 501.69783156 -49.72509766 498.72822571 C-49.83321856 492.38151305 -49.91765311 486.0345915 -50 479.6875 C-50.47668053 436.48334974 -50.47668053 436.48334974 -55.57699585 393.62852478 C-56.16148059 389.99656842 -56.42092663 386.42332072 -56.625 382.75 C-56.69976562 381.46609375 -56.77453125 380.1821875 -56.8515625 378.859375 C-56.90054687 377.91578125 -56.94953125 376.9721875 -57 376 C-61.94686159 375.23238355 -66.07942161 374.67984482 -71 376 C-74.14503839 382.29007678 -70.46283264 393.71172715 -69.37109375 400.4609375 C-69.21685944 401.41889221 -69.06262512 402.37684692 -68.90371704 403.36383057 C-68.25768232 407.3596734 -67.60974354 411.35494946 -66.93579102 415.34619141 C-64.65557178 428.91983293 -63.71287717 441.86675321 -63.97787476 455.62109375 C-64.02899165 461.11718255 -63.60943267 466.58631796 -63.1875 472.0625 C-63.10129395 473.26003906 -63.01508789 474.45757812 -62.92626953 475.69140625 C-62.16501406 485.82388811 -61.13957246 495.92704761 -59.96557617 506.01977539 C-59.10311236 513.71317448 -58.8420785 521.26025116 -59 529 C-63.76644369 529.19065775 -67.66586616 529.11667001 -72 527 C-74.54186945 522.41734648 -74.70466023 517.24123215 -75.25 512.125 C-75.50472146 509.89562821 -75.7614143 507.66648122 -76.01953125 505.4375 C-76.1685791 504.14328125 -76.31762695 502.8490625 -76.47119141 501.515625 C-77.4525505 493.08370004 -78.49461861 484.65921382 -79.54992676 476.23626709 C-79.80479317 474.19031191 -80.0565911 472.14397174 -80.30505371 470.097229 C-82.44880497 452.44942033 -84.94486711 435.08597252 -91.25 418.375 C-91.63623535 417.32884521 -92.0224707 416.28269043 -92.42041016 415.20483398 C-94.85498626 408.72504729 -97.46753051 402.34466192 -100.375 396.0625 C-100.69629883 395.36495605 -101.01759766 394.66741211 -101.34863281 393.94873047 C-102.94606745 390.64337337 -103.87805964 389.08129357 -107 387 C-110.26521381 386.64608908 -110.26521381 386.64608908 -114.00390625 386.62109375 C-115.02254005 386.59560204 -115.02254005 386.59560204 -116.06175232 386.56959534 C-118.22857405 386.51652428 -120.39537759 386.47619432 -122.5625 386.4375 C-124.73309599 386.39355498 -126.90354473 386.3468476 -129.07395935 386.29469299 C-131.04078834 386.24817773 -133.00782413 386.21066947 -134.97485352 386.17358398 C-138 386 -138 386 -140 385 C-142.56215967 384.70152465 -145.12057473 384.43671058 -147.6875 384.1875 C-154.94838164 383.42751431 -161.65774074 381.93293879 -168.6328125 379.8046875 C-172.36098535 378.91373204 -175.18542277 378.52263539 -179 379 C-182.11662147 381.1341143 -182.11662147 381.1341143 -184.8125 384 C-189.84722222 389 -189.84722222 389 -192 389 C-192.20367187 389.53367187 -192.40734375 390.06734375 -192.6171875 390.6171875 C-194.57429957 393.98961225 -197.33171289 396.45221844 -200.125 399.125 C-205.04258507 403.91061502 -209.41625285 408.7533684 -213.51171875 414.26953125 C-214.00285156 414.84058594 -214.49398437 415.41164063 -215 416 C-215.66 416 -216.32 416 -217 416 C-217.22171875 416.53238281 -217.4434375 417.06476563 -217.671875 417.61328125 C-219.4590699 420.82497561 -221.83685556 423.44046894 -224.25 426.1875 C-233.9171597 436.88693953 -233.9171597 436.88693953 -237.21484375 450.31640625 C-236.05665187 464.78327575 -228.70996652 477.98461031 -222.19482422 490.66357422 C-220.87780216 493.23895246 -219.58222223 495.82467442 -218.28515625 498.41015625 C-217.33684277 500.2738984 -216.3876324 502.13718448 -215.4375 504 C-215.0029248 504.87197021 -214.56834961 505.74394043 -214.12060547 506.64233398 C-211.41199116 511.89676349 -208.49492338 515.98558299 -204.24243164 520.11328125 C-203 522 -203 522 -203.30639648 524.73046875 C-203.53528564 525.47941406 -203.7641748 526.22835937 -204 527 C-212.77236842 528.48684211 -212.77236842 528.48684211 -217 526 C-217.99 524.515 -217.99 524.515 -219 523 C-220.03125 522.67 -221.0625 522.34 -222.125 522 C-231.11830894 518.40592269 -236.3036917 505.3041078 -240.6875 497.25 C-241.90184389 495.0505052 -243.11669974 492.85129299 -244.33203125 490.65234375 C-244.93998535 489.54745605 -245.54793945 488.44256836 -246.17431641 487.30419922 C-249.03875327 482.12002049 -251.95570987 476.96592763 -254.875 471.8125 C-255.41552002 470.85577393 -255.95604004 469.89904785 -256.51293945 468.91333008 C-259.11633388 464.30843798 -261.73727278 459.71499754 -264.39135742 455.13916016 C-267.38471977 449.96076959 -270.2896395 444.73700653 -273.0625 439.4375 C-273.65160156 438.32246094 -274.24070312 437.20742188 -274.84765625 436.05859375 C-276.12134657 432.67791742 -276.26998124 431.34409906 -275 428 C-273.4765625 425.8671875 -273.4765625 425.8671875 -271.625 423.875 C-271.01914062 423.21242188 -270.41328125 422.54984375 -269.7890625 421.8671875 C-269.19867188 421.25101562 -268.60828125 420.63484375 -268 420 C-267.47148437 419.42507813 -266.94296875 418.85015625 -266.3984375 418.2578125 C-265 417 -265 417 -263 417 C-262.74734375 416.41347656 -262.4946875 415.82695312 -262.234375 415.22265625 C-260.85912332 412.74633281 -259.35292781 411.32442941 -257.25 409.4375 C-252.34495363 404.6398634 -247.76156435 398.6828106 -246.6328125 391.7421875 C-246.58057932 389.65840153 -246.58057932 389.65840153 -247 387 C-252.35968241 387.41228326 -255.53591442 389.47628437 -259.5625 392.8125 C-260.16529785 393.29879883 -260.7680957 393.78509766 -261.38916016 394.28613281 C-266.83530939 398.73677993 -271.99999623 403.47946499 -277.12109375 408.296875 C-281.70627418 412.60209191 -286.46480418 416.68922039 -291.24609375 420.7734375 C-292.4557962 421.80721323 -293.6654298 422.84106954 -294.875 423.875 C-295.47940918 424.39126953 -296.08381836 424.90753906 -296.70654297 425.43945312 C-301.14456393 429.24039755 -305.50539903 433.11759218 -309.81640625 437.0625 C-311.38142319 438.45113757 -312.99644829 439.78418712 -314.640625 441.078125 C-317.1383438 442.97295692 -317.1383438 442.97295692 -319.1875 445.75 C-320.0846875 446.86375 -320.0846875 446.86375 -321 448 C-321.66 448 -322.32 448 -323 448 C-323.3403125 448.8353125 -323.3403125 448.8353125 -323.6875 449.6875 C-325.3664331 452.64562023 -327.58983583 454.58983583 -330 457 C-334.88482366 462.67920383 -338.55828748 468.34221742 -341.4375 475.25 C-341.8072998 476.1268042 -342.17709961 477.0036084 -342.55810547 477.90698242 C-345.78498895 485.88093653 -348.28768876 494.04449231 -350.625 502.3125 C-350.98005615 503.54581055 -351.3351123 504.77912109 -351.70092773 506.04980469 C-353.70688006 513.47157405 -354.96603524 519.2583856 -351.9375 526.5625 C-350.7030045 529.77218831 -350.86643449 532.59407951 -351 536 C-356.34265249 538.26500801 -360.73374318 538.07486099 -366.375 537.625 C-367.20644531 537.56828125 -368.03789062 537.5115625 -368.89453125 537.453125 C-370.93044876 537.3127169 -372.96535843 537.15782335 -375 537 C-375.02721176 535.10424749 -375.04649136 533.20838021 -375.0625 531.3125 C-375.07410156 530.25675781 -375.08570313 529.20101562 -375.09765625 528.11328125 C-375.00815492 525.25997894 -374.57199015 522.78457218 -374 520 C-373.91066046 518.14751826 -373.86984109 516.2921276 -373.875 514.4375 C-373.87242187 513.50808594 -373.86984375 512.57867188 -373.8671875 511.62109375 C-373.89972078 509.10394488 -373.89972078 509.10394488 -374.5078125 507.16015625 C-376.09773542 500.18216122 -374.5630221 494.69709123 -372 488.25 C-371.68675781 487.42999512 -371.37351562 486.60999023 -371.05078125 485.76513672 C-369.09620815 480.68266723 -367.04861347 475.63817595 -365.00073242 470.59277344 C-359.64833991 457.39394849 -354.45829816 443.99762969 -351.375 430.0625 C-350.21718013 425.11352605 -348.7861548 422.42556862 -345 419 C-342.1875 417.625 -342.1875 417.625 -340 417 C-340 416.34 -340 415.68 -340 415 C-335.61538462 412 -335.61538462 412 -333 412 C-333 411.34 -333 410.68 -333 410 C-331.7315625 409.195625 -331.7315625 409.195625 -330.4375 408.375 C-318.97284438 401.0548443 -311.18100909 386.54302728 -307 374 C-306.90387866 371.6617123 -306.86925343 369.32073036 -306.8671875 366.98046875 C-306.86575241 365.93793694 -306.86575241 365.93793694 -306.86428833 364.87434387 C-306.86360758 363.3974295 -306.86545458 361.92051214 -306.86962891 360.44360352 C-306.87488974 358.23381379 -306.86972738 356.02423577 -306.86328125 353.81445312 C-306.85971298 346.01157339 -307.14030938 338.3132722 -307.75976562 330.53051758 C-308.16126824 324.62997958 -308.26085951 318.73321022 -308.29516602 312.82128906 C-308.3067828 311.43316535 -308.32738437 310.04508953 -308.35668945 308.65722656 C-308.70834582 291.86416168 -308.70834582 291.86416168 -304 285 C-302.67515059 284.31662875 -301.34237568 283.64826674 -300 283 C-299.67 282.01 -299.34 281.02 -299 280 C-297.33333333 279.33333333 -295.66666667 278.66666667 -294 278 C-293.67 277.01 -293.34 276.02 -293 275 C-288.66666667 272 -288.66666667 272 -286 272 C-286 271.34 -286 270.68 -286 270 C-283.61606421 269.04642568 -281.23205443 268.09304284 -278.84765625 267.140625 C-277.06233845 266.42551828 -275.27827726 265.70725755 -273.49609375 264.984375 C-271.00263094 263.9757833 -268.50336904 262.98373982 -266 262 C-264.70449219 261.48759766 -264.70449219 261.48759766 -263.3828125 260.96484375 C-257.1972999 258.60717735 -251.03189476 256.9773049 -244.5546875 255.61328125 C-242.08043591 255.25460683 -242.08043591 255.25460683 -241 254 C-231.4056056 252.62168071 -221.72285731 251.89269674 -212.04296875 251.46875 C-211.11081543 251.42721802 -210.17866211 251.38568604 -209.21826172 251.34289551 C-195.78197638 250.78190108 -182.3336853 250.64224744 -168.88818359 250.44775391 C-165.39413491 250.39602889 -161.90020518 250.3389002 -158.40625 250.28125 C-157.34692261 250.26767456 -156.28759521 250.25409912 -155.19616699 250.2401123 C-150.34459082 250.15815667 -145.78136196 249.88782915 -141 249 C-139.02751547 248.90382565 -137.0528275 248.84646216 -135.078125 248.82421875 C-133.96953125 248.80037109 -132.8609375 248.77652344 -131.71875 248.75195312 C-129.42205886 248.70927812 -127.12512839 248.67786925 -124.828125 248.65820312 C-117.37478118 248.47273218 -111.71064371 247.21156675 -105 244 C-103.16666667 243.25 -101.33333333 242.5 -99.5 241.75 C-98.6853125 241.41484375 -97.870625 241.0796875 -97.03125 240.734375 C-95 240 -95 240 -93 240 C-93 239.34 -93 238.68 -93 238 C-90.36 237.01 -87.72 236.02 -85 235 C-84.55967244 224.29125684 -84.55967244 224.29125684 -87 214 C-88.86715507 212.13284493 -91.50393825 212.86754317 -93.984375 212.86328125 C-95.16773438 212.86908203 -95.16773438 212.86908203 -96.375 212.875 C-97.15617187 212.87113281 -97.93734375 212.86726562 -98.7421875 212.86328125 C-102.0765946 212.86899085 -104.81606986 212.93868995 -108 214 C-121.15487645 215.43373373 -121.15487645 215.43373373 -126.984375 212.49609375 C-130.61474887 209.46485021 -133.26234268 206.40797937 -134.75 201.875 C-135.04141065 197.35813493 -134.30722517 195.83077259 -132 192 C-129.4765625 189.40234375 -129.4765625 189.40234375 -126.625 186.9375 C-122.94963293 183.73294441 -119.42020577 180.47645915 -116 177 C-115.36835938 176.37996094 -114.73671875 175.75992188 -114.0859375 175.12109375 C-109.68086985 170.86693339 -109.68086985 170.86693339 -106 166 C-106 165.34 -106 164.68 -106 164 C-107.299375 163.814375 -108.59875 163.62875 -109.9375 163.4375 C-119.79544482 161.20405938 -127.51561237 152.3179195 -134 145 C-136.28941159 141.33010739 -135.95524125 139.20306152 -135 135 C-136.918125 134.62875 -136.918125 134.62875 -138.875 134.25 C-139.77863281 134.064375 -140.68226563 133.87875 -141.61328125 133.6875 C-143.43837109 133.31700887 -145.26444575 132.9506976 -147.09521484 132.609375 C-159.61668249 130.27225077 -169.17030674 127.87457398 -177 117 C-177.45375 116.39285156 -177.9075 115.78570312 -178.375 115.16015625 C-181.67124779 110.43116439 -183.45007835 105.85101859 -183 100 C-182.01 98.515 -182.01 98.515 -181 97 C-177.68461581 97.29930552 -176.30182707 97.69131322 -173.9375 100.109375 C-173.298125 100.98078125 -172.65875 101.8521875 -172 102.75 C-166.44044136 110.07234553 -159.78891815 117.55617901 -151 121 C-148.23312615 121.31066654 -145.7967539 121.19626343 -143 121 C-143.99070137 117.47750623 -145.54405807 115.29368779 -148 112.6875 C-161.49549265 97.74909304 -167.85373567 81.03034773 -167.140625 61.00976562 C-166.84836434 56.83287374 -165.8693485 53.73869699 -164 50 C-161.9921875 49.21875 -161.9921875 49.21875 -160 49 C-156.36293067 51.23819651 -155.99099626 55.08416053 -155 59 C-154.69041421 61.32850849 -154.4207266 63.66260819 -154.1875 66 C-151.96849562 83.19304917 -144.89129369 97.80817111 -133.6640625 110.9140625 C-132 113 -132 113 -130.9296875 115.19921875 C-129.57064611 117.83164766 -127.73357957 118.11158664 -125 119 C-124.34 119.33 -123.68 119.66 -123 120 C-123 120.66 -123 121.32 -123 122 C-119.24757263 122.78998471 -115.57480626 123.13913605 -111.75 123.25 C-110.89921875 123.27578125 -110.0484375 123.3015625 -109.171875 123.328125 C-108.45515625 123.21984375 -107.7384375 123.1115625 -107 123 C-102.87482253 116.8122338 -103.75096664 108.95134858 -103.6875 101.75 C-103.65849609 100.66847656 -103.62949219 99.58695312 -103.59960938 98.47265625 C-103.5239568 88.8240437 -105.98654064 81.53342796 -111.3125 73.5 C-112.21162109 72.13101563 -112.21162109 72.13101563 -113.12890625 70.734375 C-114.9680404 68.04670505 -116.85297208 65.3970157 -118.75 62.75 C-124.20845301 55.02739047 -126.1448323 48.22983764 -126.125 38.75 C-126.12757813 37.50734375 -126.13015625 36.2646875 -126.1328125 34.984375 C-126 32 -126 32 -125 31 C-122.625 30.625 -122.625 30.625 -120 31 C-117.12621765 34.96965136 -115.565735 39.46622796 -113.8125 44 C-108.42524796 57.91443407 -108.42524796 57.91443407 -99 69 C-96.51872496 69.55732322 -96.51872496 69.55732322 -94 69 C-84.97234227 61.45420401 -80.92540963 47.8110843 -78.0546875 36.875 C-76.83835145 33.55935803 -75.47821282 31.51355276 -73 29 C-69.74102869 27.55333469 -66.5628752 27.01726757 -63 27 C-59.875 28.75 -59.875 28.75 -58 31 C-58 31.66 -58 32.32 -58 33 C-57.34 33 -56.68 33 -56 33 C-54.89013672 34.3984375 -54.89013672 34.3984375 -53.6796875 36.375 C-53.23101318 37.10412598 -52.78233887 37.83325195 -52.32006836 38.58447266 C-51.8431958 39.38159668 -51.36632324 40.1787207 -50.875 41 C-50.3807251 41.82161621 -49.8864502 42.64323242 -49.37719727 43.48974609 C-41.7888041 56.2555662 -35.83949445 69.44378824 -30.23608398 83.19189453 C-29.82946533 84.18946777 -29.42284668 85.18704102 -29.00390625 86.21484375 C-28.64111572 87.11323975 -28.2783252 88.01163574 -27.90454102 88.93725586 C-27.17078522 90.95041724 -27.17078522 90.95041724 -26 92 C-22.0264126 91.84716972 -19.64023765 91.48408213 -16.4375 89.0625 C-7.12519775 77.36242795 -1.54558352 64.10372144 -2.6875 49.02685547 C-4.09252326 39.9139624 -10.41398979 31.8632652 -16.30078125 25.0859375 C-18 23 -18 23 -19.08984375 20.78515625 C-20.42072766 18.17479596 -22.30524714 18.04115452 -25 17 C-27.91616754 15.04420494 -30.4636466 13.0727068 -32.0625 9.875 C-32 8 -32 8 -30.75 6.390625 C-28.57718608 4.66401394 -27.67235638 4.62682791 -24.9375 4.875 C-16.22123831 6.19306884 -9.83343357 12.61740348 -4.47265625 19.203125 C-3.04293258 21.01170665 -3.04293258 21.01170665 -1.43359375 22.546875 C-0 24 -0 24 2 27 C1.85833643 25.08302063 1.71150416 23.16642277 1.5625 21.25 C1.48128906 20.18265625 1.40007812 19.1153125 1.31640625 18.015625 C1.09135601 15.14089977 1.09135601 15.14089977 0.46875 12.96875 C-0.15159818 10.36328762 -0.09433255 7.92393391 -0.0625 5.25 C-0.05347656 4.26515625 -0.04445313 3.2803125 -0.03515625 2.265625 C-0.01775391 1.14414062 -0.01775391 1.14414062 0 0 Z M-68 36 C-68.29132813 37.16015625 -68.58265625 38.3203125 -68.8828125 39.515625 C-72.32695238 52.80994786 -77.41239827 63.77245078 -84.77734375 75.40625 C-86.15236744 77.84715769 -86.15236744 77.84715769 -86.00390625 80.15625 C-84.54281007 82.83966399 -82.69585986 83.61744717 -80 85 C-77.29292606 85.56762033 -77.29292606 85.56762033 -74.4375 85.6953125 C-73.39335937 85.77136719 -72.34921875 85.84742188 -71.2734375 85.92578125 C-70.19320313 85.99152344 -69.11296875 86.05726562 -68 86.125 C-65.85399735 86.27096915 -63.7081552 86.41932195 -61.5625 86.5703125 C-60.61503906 86.62977051 -59.66757812 86.68922852 -58.69140625 86.75048828 C-56.06836576 86.99366203 -53.57664538 87.46448334 -51 88 C-49.39696373 88.06371368 -47.79162328 88.08644214 -46.1875 88.0625 C-45.07822144 88.0459436 -45.07822144 88.0459436 -43.9465332 88.02905273 C-42.98299927 88.01467163 -42.98299927 88.01467163 -42 88 C-44.03483508 80.21112148 -47.03895588 73.1618559 -50.5625 65.9375 C-51.08755127 64.85218994 -51.61260254 63.76687988 -52.15356445 62.64868164 C-56.63480369 53.50587297 -61.410114 44.51959564 -67 36 C-67.33 36 -67.66 36 -68 36 Z M-89 91 C-91.20063419 93.20063419 -90.24962754 98.59387397 -90.25097656 101.64941406 C-90.16451413 107.56816085 -89.07637064 112.45707066 -87 118 C-86.70996094 118.98742187 -86.41992188 119.97484375 -86.12109375 120.9921875 C-84.15750023 127.58131721 -81.80680458 132.98718951 -77 138 C-73.79745853 139.60127074 -71.54685436 139.40701607 -68 139 C-63.18925186 136.15683801 -59.77435258 132.32305775 -58 127 C-57.78182705 123.98028808 -57.8187673 121.02054502 -58 118 C-57.33613281 118.10699219 -56.67226563 118.21398437 -55.98828125 118.32421875 C-55.10527344 118.44410156 -54.22226562 118.56398438 -53.3125 118.6875 C-52.44238281 118.81511719 -51.57226562 118.94273437 -50.67578125 119.07421875 C-46.07500176 118.94660589 -43.69569355 116.70232974 -40.54296875 113.51953125 C-39.37701172 112.17955078 -39.37701172 112.17955078 -38.1875 110.8125 C-37.39730469 109.91144531 -36.60710937 109.01039063 -35.79296875 108.08203125 C-35.20128906 107.39496094 -34.60960937 106.70789063 -34 106 C-34.495 104.515 -34.495 104.515 -35 103 C-35.61746094 102.89042969 -36.23492187 102.78085938 -36.87109375 102.66796875 C-41.12365379 101.87182737 -45.22881151 101.00469482 -49.3125 99.5625 C-54.08442147 97.88128923 -58.94605654 96.81385591 -63.88671875 95.74609375 C-67 95 -67 95 -69.875 93.984375 C-73.67231923 92.78821944 -77.36926035 92.27535525 -81.3125 91.8125 C-82.04017578 91.71775391 -82.76785156 91.62300781 -83.51757812 91.52539062 C-85.33989351 91.3029085 -87.1699401 91.14564491 -89 91 Z M-113 137 C-112.14734312 139.26746143 -112.14734312 139.26746143 -109.48828125 139.96484375 C-108.44027344 140.28582031 -107.39226562 140.60679687 -106.3125 140.9375 C-102.87311572 142.02297943 -99.88424204 143.06115515 -96.6875 144.75 C-93.32281112 146.31497157 -90.66549942 146.21992996 -87 146 C-86.12563582 144.26424351 -86.12563582 144.26424351 -86 142 C-88.65703664 137.53617845 -91.08511756 136.30671126 -96 135 C-99.29329804 134.68704255 -99.29329804 134.68704255 -102.625 134.75 C-104.28402344 134.74226562 -104.28402344 134.74226562 -105.9765625 134.734375 C-108.88066911 134.98951615 -110.54484843 135.49098001 -113 137 Z " fill="#070707" transform="translate(480,29)"/>
<path d="M0 0 C8.60967769 7.9732836 12.51172677 22.67698808 15.875 33.5625 C16.14860352 34.43358398 16.42220703 35.30466797 16.70410156 36.20214844 C21.37727453 52.0747223 22.38991561 67.38759955 21.86303711 83.82275391 C21.55276038 94.39885315 22.43777177 103.77280114 25.08447266 114.03540039 C27.79634218 124.85436442 26.21757782 136.17734264 21 146 C20 144 20 144 20.55859375 142.3203125 C20.99365234 141.23363281 20.99365234 141.23363281 21.4375 140.125 C23.10928356 134.79232004 23.37544442 129.73078387 23.4375 124.1875 C23.4593335 123.3826416 23.48116699 122.5777832 23.50366211 121.74853516 C23.48819799 116.7311767 22.660553 112.72909403 20.984375 107.99609375 C18.22966893 99.63624504 18.59471731 91.56659052 18.8125 82.875 C18.86932273 79.74750251 18.91564753 76.61992536 18.95703125 73.4921875 C18.96703659 72.7431012 18.97704193 71.99401489 18.98735046 71.222229 C19.08287621 61.33404227 17.81697899 52.12261585 15.5625 42.5 C15.34529297 41.52546875 15.12808594 40.5509375 14.90429688 39.546875 C13.65393506 33.99464839 13.65393506 33.99464839 11 29 C10.875 26.3125 10.875 26.3125 11 24 C10.34 24 9.68 24 9 24 C8.77957031 23.12601563 8.77957031 23.12601563 8.5546875 22.234375 C6.81495336 15.87534675 4.29059235 10.29075343 1.20703125 4.46875 C0 2 0 2 0 0 Z " fill="#919191" transform="translate(463,209)"/>
<path d="M0 0 C4.21471498 6.32207247 3.20699913 14.78952317 3.31640625 22.1484375 C3.33723267 23.3386702 3.35805908 24.52890289 3.3795166 25.75520325 C3.44544425 29.62840556 3.50434392 33.50167377 3.5625 37.375 C3.59463659 39.36788093 3.62677358 41.36076187 3.65904903 43.35364056 C4.01521495 65.56944321 4.12470305 87.78175299 4 110 C4.66 110 5.32 110 6 110 C6 110.66 6 111.32 6 112 C9.63 112.66 13.26 113.32 17 114 C16.34 112.68 15.68 111.36 15 110 C13.51440139 103.16046219 13.80511733 96.21360039 13.8125 89.25 C13.8117749 88.56001923 13.8110498 87.87003845 13.81030273 87.15914917 C13.81156196 76.33374349 14.35452976 65.71024825 16 55 C16.33 55 16.66 55 17 55 C17.12518878 61.44026704 16.92197272 67.82364649 16.5 74.25 C15.8135119 85.18633972 15.26649516 95.88328703 17.5546875 106.6796875 C18.09232017 109.48103668 18.15375126 112.15560178 18 115 C14.77564339 116.07478554 13.71203245 115.93162085 10.5 115.1875 C9.7265625 115.01605469 8.953125 114.84460938 8.15625 114.66796875 C6 114 6 114 3 112 C2.6594657 109.09657586 2.51375444 106.39719665 2.49169922 103.48632812 C2.46419083 102.1639917 2.46419083 102.1639917 2.43612671 100.81494141 C2.37854893 97.88711782 2.34175815 94.95939909 2.3046875 92.03125 C2.26793289 89.99537621 2.22975617 87.95952765 2.19021606 85.92370605 C2.08912236 80.54858161 2.00505402 75.17332809 1.9251709 69.79785156 C1.79470714 61.22216092 1.63763704 52.64691125 1.48242569 44.07164001 C1.43060229 41.08398827 1.38534198 38.09629561 1.34127808 35.10852051 C1.31079231 33.25528802 1.28020853 31.40205713 1.24951172 29.54882812 C1.23392212 28.31706848 1.23392212 28.31706848 1.21801758 27.0604248 C1.12961686 22.05657207 0.77195233 17.13520366 0.21951485 12.16078949 C-0.04499148 9.55712739 -0.09986966 6.99087621 -0.0625 4.375 C-0.05347656 3.53710938 -0.04445313 2.69921875 -0.03515625 1.8359375 C-0.02355469 1.23007812 -0.01195312 0.62421875 0 0 Z " fill="#797879" transform="translate(428,441)"/>
<path d="M0 0 C0 0.66 0 1.32 0 2 C-0.99 2.33 -1.98 2.66 -3 3 C-4.61244386 4.59066286 -4.61244386 4.59066286 -6.1875 6.5625 C-9.40404619 10.36886063 -12.82112537 13.8691215 -16.3984375 17.3359375 C-21.63784593 22.77981065 -20.19234053 33.75095584 -20.1875 40.875 C-20.18814453 41.88675293 -20.18878906 42.89850586 -20.18945312 43.94091797 C-20.14702933 50.07404858 -19.77586585 56.04480023 -19 62.125 C-17.97058813 70.45163586 -17.70885751 78.73820125 -17.625 87.125 C-17.59921875 88.35879395 -17.5734375 89.59258789 -17.546875 90.86376953 C-17.53123375 98.0343039 -18.11481882 103.83934089 -22 110 C-22.99 110.99 -22.99 110.99 -24 112 C-23.4646397 109.68010535 -22.82465498 107.53943209 -21.9753418 105.30859375 C-20.88468833 101.6088351 -20.75698426 98.54114755 -20.76953125 94.6875 C-20.76998947 93.99672363 -20.77044769 93.30594727 -20.7709198 92.59423828 C-20.7739279 91.13523639 -20.78177078 89.6762373 -20.79418945 88.21728516 C-20.81221875 86.03405766 -20.81470016 83.85126233 -20.81445312 81.66796875 C-20.83431113 73.91949539 -21.15166063 66.2650272 -21.76196289 58.53710938 C-22.15921181 52.63419409 -22.26084711 46.73534668 -22.29516602 40.82128906 C-22.3067828 39.43316535 -22.32738437 38.04508953 -22.35668945 36.65722656 C-22.70834582 19.86416168 -22.70834582 19.86416168 -18 13 C-16.67515059 12.31662875 -15.34237568 11.64826674 -14 11 C-13.67 10.01 -13.34 9.02 -13 8 C-11.33333333 7.33333333 -9.66666667 6.66666667 -8 6 C-7.67 5.01 -7.34 4.02 -7 3 C-2.66666667 0 -2.66666667 0 0 0 Z " fill="#8B8B8B" transform="translate(194,301)"/>
<path d="M0 0 C1.67542976 0.28604898 3.34385343 0.61781233 5 1 C7.09367632 6.42452502 8.24203811 11.33705039 8.875 17.125 C10.80779739 32.72766279 16.90770748 46.90723078 27 59 C26.67 59.66 26.34 60.32 26 61 C21 55.25 21 55.25 21 53 C20.34 53 19.68 53 19 53 C18.03912864 51.10545176 17.08141031 49.20930419 16.125 47.3125 C15.32449219 45.72888672 15.32449219 45.72888672 14.5078125 44.11328125 C11 36.87046632 11 36.87046632 11 33 C10.34 33 9.68 33 9 33 C6.85768326 25.45904506 5.48464515 18.03543117 4.64697266 10.2578125 C4.27741564 6.50811562 4.27741564 6.50811562 3 3 C2.34 3 1.68 3 1 3 C-1.0544535 8.11969811 -1.38479624 12.62830708 -1.375 18.0625 C-1.37483887 18.89724854 -1.37467773 19.73199707 -1.37451172 20.59204102 C-1.22816281 28.60810977 0.26688425 36.0607418 4.1953125 43.16015625 C5 45 5 45 4 48 C-3.03936964 35.17829101 -6.44162008 21.47267269 -3.3515625 6.953125 C-1.64377934 1.64377934 -1.64377934 1.64377934 0 0 Z " fill="#B9B9B9" transform="translate(317,78)"/>
<path d="M0 0 C0.33 0 0.66 0 1 0 C0.91174084 1.39692939 0.80355166 2.79260452 0.6875 4.1875 C0.62949219 4.96480469 0.57148437 5.74210937 0.51171875 6.54296875 C-0.10530698 9.50563426 -1.40019322 11.44267339 -3 14 C-4.49645561 17.61066514 -5.73866072 21.30149667 -7 25 C-7.6496875 26.794375 -7.6496875 26.794375 -8.3125 28.625 C-9.0497238 32.24409864 -8.81791819 34.85085254 -8.296875 38.4609375 C-7.67823767 43.75191463 -7.19105502 49.79557453 -8.50390625 54.99609375 C-9.15301538 57.61808574 -9.09460308 60.05334163 -9.0625 62.75 C-9.041875 64.4825 -9.02125 66.215 -9 68 C-2.4 68.33 4.2 68.66 11 69 C10.34 66.69 9.68 64.38 9 62 C9.375 59.5625 9.375 59.5625 10 58 C11.99785435 62.1205746 12.17835515 65.45194365 12 70 C6.65734751 72.26500801 2.26625682 72.07486099 -3.375 71.625 C-4.62216797 71.53992188 -4.62216797 71.53992188 -5.89453125 71.453125 C-7.93044876 71.3127169 -9.96535843 71.15782335 -12 71 C-12.02721176 69.10424749 -12.04649136 67.20838021 -12.0625 65.3125 C-12.07410156 64.25675781 -12.08570312 63.20101562 -12.09765625 62.11328125 C-12.00815492 59.25997894 -11.57199015 56.78457218 -11 54 C-10.91066046 52.14751826 -10.86984109 50.2921276 -10.875 48.4375 C-10.87242188 47.50808594 -10.86984375 46.57867188 -10.8671875 45.62109375 C-10.89972078 43.10394488 -10.89972078 43.10394488 -11.5078125 41.16015625 C-13.14199482 33.98791162 -11.44247655 28.37791885 -8.8125 21.75 C-8.49659912 20.92459717 -8.18069824 20.09919434 -7.85522461 19.2487793 C-5.36264118 12.78168925 -2.75472309 6.35998281 0 0 Z " fill="#B3B3B3" transform="translate(117,495)"/>
<path d="M0 0 C0 3.69859196 -0.79844389 4.22773143 -3.25 6.875 C-3.89453125 7.58398438 -4.5390625 8.29296875 -5.203125 9.0234375 C-6.09257812 10.00183594 -6.09257812 10.00183594 -7 11 C-7.66 11.825 -8.32 12.65 -9 13.5 C-13.012053 18.51506625 -17.12964195 23.23716229 -21.9375 27.5 C-24.34056061 29.90306061 -25.56945652 31.5824534 -25.9375 35 C-25.56893505 38.4945417 -24.20908478 40.47083819 -21.8125 43 C-17.14336615 46.65374289 -12.91296281 46.65775042 -7.1484375 46.44140625 C-3.99505961 46.10765327 -3.99505961 46.10765327 -1.125 44.97265625 C2.81060921 43.74769788 6.28673865 43.77889259 10.375 43.875 C11.47908203 43.88853516 11.47908203 43.88853516 12.60546875 43.90234375 C14.4037888 43.92569856 16.20193911 43.96156164 18 44 C18 44.66 18 45.32 18 46 C16.21142578 46.09087891 16.21142578 46.09087891 14.38671875 46.18359375 C12.82030075 46.26801149 11.25389512 46.35265887 9.6875 46.4375 C8.90181641 46.47681641 8.11613281 46.51613281 7.30664062 46.55664062 C6.54931641 46.59853516 5.79199219 46.64042969 5.01171875 46.68359375 C4.31522217 46.72025146 3.61872559 46.75690918 2.90112305 46.79467773 C0.7783428 46.95581153 0.7783428 46.95581153 -2 48 C-15.15487645 49.43373373 -15.15487645 49.43373373 -20.984375 46.49609375 C-24.61474887 43.46485021 -27.26234268 40.40797937 -28.75 35.875 C-29.04141065 31.35813493 -28.30722517 29.83077259 -26 26 C-23.4765625 23.40234375 -23.4765625 23.40234375 -20.625 20.9375 C-16.94963293 17.73294441 -13.42020577 14.47645915 -10 11 C-9.36835938 10.37996094 -8.73671875 9.75992188 -8.0859375 9.12109375 C-5.14554818 6.22769695 -2.33020291 3.42676899 0 0 Z " fill="#C5C5C5" transform="translate(374,195)"/>
<path d="M0 0 C1.1875 1.5625 1.1875 1.5625 1.1875 3.5625 C1.8475 3.5625 2.5075 3.5625 3.1875 3.5625 C4.29736328 4.9609375 4.29736328 4.9609375 5.5078125 6.9375 C5.95664795 7.66694824 6.4054834 8.39639648 6.86791992 9.14794922 C7.34463135 9.94475098 7.82134277 10.74155273 8.3125 11.5625 C8.80532471 12.38121582 9.29814941 13.19993164 9.8059082 14.04345703 C16.40129533 25.13399429 21.88180909 36.49053488 26.75 48.4375 C27.10924561 49.3126123 27.46849121 50.18772461 27.83862305 51.08935547 C28.32262573 52.30969482 28.32262573 52.30969482 28.81640625 53.5546875 C29.10588135 54.28026855 29.39535645 55.00584961 29.69360352 55.75341797 C30.1875 57.5625 30.1875 57.5625 29.1875 59.5625 C28.80078125 58.716875 28.4140625 57.87125 28.015625 57 C24.69522785 49.72055157 24.69522785 49.72055157 21.125 42.5625 C14.1875 28.92167722 14.1875 28.92167722 14.1875 23.5625 C13.5275 23.5625 12.8675 23.5625 12.1875 23.5625 C11.51654297 22.24185547 11.51654297 22.24185547 10.83203125 20.89453125 C10.22746094 19.73308594 9.62289063 18.57164063 9 17.375 C8.40832031 16.22644531 7.81664062 15.07789062 7.20703125 13.89453125 C5.18872939 10.56452837 2.98993302 8.2375497 0.1875 5.5625 C-0.2765625 4.44875 -0.2765625 4.44875 -0.75 3.3125 C-1.100625 2.735 -1.45125 2.1575 -1.8125 1.5625 C-4.87158413 0.74665432 -4.87158413 0.74665432 -7.8125 0.5625 C-8.1425 1.2225 -8.4725 1.8825 -8.8125 2.5625 C-9.59625 2.85125 -10.38 3.14 -11.1875 3.4375 C-14.33466246 4.78628391 -15.19249093 5.55391172 -16.8125 8.5625 C-17.63441341 11.53679916 -18.26123406 14.52729457 -18.8125 17.5625 C-19.4725 17.5625 -20.1325 17.5625 -20.8125 17.5625 C-20.31960317 10.66194433 -18.90627968 4.65627968 -13.875 -0.375 C-9.20944818 -2.77846609 -4.3059331 -3.41505039 0 0 Z " fill="#CECECE" transform="translate(420.8125,58.4375)"/>
<path d="M0 0 C2.75 -0.3125 2.75 -0.3125 6 0 C9.7221325 3.68695166 11.05524247 7.57162798 12.1875 12.5625 C12.35475586 13.27140381 12.52201172 13.98030762 12.69433594 14.71069336 C14.06930325 20.79307122 14.8162931 26.76195267 15 33 C15.03996094 34.18207031 15.07992188 35.36414063 15.12109375 36.58203125 C15.35255473 49.80253793 13.8628209 62.61500303 9 75 C8.01 75.99 8.01 75.99 7 77 C8.81152724 68.63910506 8.81152724 68.63910506 9.75683594 65.43359375 C12.02399063 57.55319943 12.49564258 50.00665581 12.44604492 41.87451172 C12.43756273 39.76559652 12.46636558 37.65942933 12.49804688 35.55078125 C12.5555477 24.47647764 11.77361639 11.19908023 5 2 C4.01 1.67 3.02 1.34 2 1 C2.144375 2.19496094 2.28875 3.38992187 2.4375 4.62109375 C2.62527043 6.22653089 2.8127551 7.83200148 3 9.4375 C3.09539062 10.22060547 3.19078125 11.00371094 3.2890625 11.81054688 C3.91511131 17.24375619 4.08759571 22.53074263 4 28 C3.67 28 3.34 28 3 28 C1.15190851 18.61653547 -0.56081859 9.61700032 0 0 Z " fill="#B5B4B5" transform="translate(480,29)"/>
<path d="M0 0 C0.66 0.33 1.32 0.66 2 1 C2.36303711 3.68261719 2.36303711 3.68261719 2.52734375 7.296875 C2.56079391 7.94954346 2.59424408 8.60221191 2.62870789 9.2746582 C2.7011185 10.69068797 2.7695591 12.10692498 2.83453369 13.52331543 C3.00860394 17.28764908 3.21410147 21.05011422 3.42578125 24.8125 C3.49052643 25.96416656 3.49052643 25.96416656 3.55657959 27.13909912 C4.07252307 35.86609146 5.00873226 44.53649971 6.03491211 53.21777344 C6.90368549 60.84597294 7.15603863 68.32416053 7 76 C2.17639811 76.19294408 -1.49646738 75.75747614 -6 74 C-6 73.34 -6 72.68 -6 72 C-2.04 72.66 1.92 73.32 6 74 C5.73445313 72.67097656 5.46890625 71.34195313 5.1953125 69.97265625 C2.56370837 55.80353248 1.39587995 41.81270144 0.75 27.4375 C0.70925354 26.53532745 0.66850708 25.63315491 0.62652588 24.7036438 C0.26386897 16.46485395 -0.044415 8.24774897 0 0 Z " fill="#AAAAAA" transform="translate(414,482)"/>
<path d="M0 0 C8.18218118 0.79182398 8.18218118 0.79182398 10.83764648 1.46777344 C21.02533997 3.95372799 31.66084662 3.41232129 42.08227539 3.53173828 C44.75945495 3.56551522 47.43628247 3.61057564 50.11328125 3.65625 C50.93105545 3.6615271 51.74882965 3.6668042 52.59138489 3.67224121 C56.78053648 3.7453945 60.24589636 3.90913009 64 6 C64.8125 8.125 64.8125 8.125 65 10 C64.48646973 9.67781494 63.97293945 9.35562988 63.44384766 9.02368164 C60.18984419 7.66064103 57.42284286 7.69089951 53.8984375 7.62109375 C52.88192612 7.59560204 52.88192612 7.59560204 51.84487915 7.56959534 C49.68834645 7.51663969 47.53183123 7.47623827 45.375 7.4375 C43.21112308 7.39354024 41.04739286 7.34684546 38.88369751 7.29469299 C36.92569271 7.2482239 34.96748198 7.21068918 33.00927734 7.17358398 C30 7 30 7 28 6 C25.35435048 5.67771711 22.71378246 5.39095401 20.0625 5.125 C13.1493848 4.3829762 6.63391159 3.14921542 0 1 C0 0.67 0 0.34 0 0 Z " fill="#959595" transform="translate(312,408)"/>
<path d="M0 0 C14.43315469 13.3663117 20.61319494 44.02462968 22 63 C22.2836889 70.66706567 22.19995828 78.33185645 22 86 C21.67 86 21.34 86 21 86 C20.98018066 85.38592285 20.96036133 84.7718457 20.93994141 84.13916016 C20.84346198 81.30074617 20.73429198 78.46294843 20.625 75.625 C20.5940625 74.65949219 20.563125 73.69398438 20.53125 72.69921875 C20.27243583 66.27200012 19.43148288 60.26379282 18 54 C17.59374543 52.10546973 17.18749558 50.21093845 16.78125 48.31640625 C16.35554691 46.39813068 15.92845544 44.4801627 15.5 42.5625 C15.28730469 41.58345703 15.07460938 40.60441406 14.85546875 39.59570312 C14.54029297 38.18901367 14.54029297 38.18901367 14.21875 36.75390625 C14.03248047 35.91158447 13.84621094 35.0692627 13.65429688 34.20141602 C13.04111706 31.74245867 13.04111706 31.74245867 11 29 C10.875 26.3125 10.875 26.3125 11 24 C10.34 24 9.68 24 9 24 C8.77957031 23.12601563 8.77957031 23.12601563 8.5546875 22.234375 C6.81495336 15.87534675 4.29059235 10.29075343 1.20703125 4.46875 C0 2 0 2 0 0 Z " fill="#C3C3C3" transform="translate(463,209)"/>
<path d="M0 0 C0.86625 0.12375 1.7325 0.2475 2.625 0.375 C6.01277478 5.05031182 7.83379285 10.62438991 9.93164062 15.9609375 C11.37230277 19.55457136 12.88300154 22.94802486 14.84765625 26.2890625 C16.625 29.375 16.625 29.375 16.625 31.375 C15.965 31.375 15.305 31.375 14.625 31.375 C3.43410795 9.57372327 3.43410795 9.57372327 1.625 1.375 C0.635 1.375 -0.355 1.375 -1.375 1.375 C-1.15225136 4.54418792 -0.89177764 7.70923868 -0.625 10.875 C-0.563125 11.761875 -0.50125 12.64875 -0.4375 13.5625 C0.24776201 21.32880283 2.70279242 27.14538989 7.375 33.375 C8.1175 34.365 8.86 35.355 9.625 36.375 C9.295 37.035 8.965 37.695 8.625 38.375 C-1.33441938 26.88336225 -4.25139167 16.39594554 -3.375 1.375 C-2.375 0.375 -2.375 0.375 0 0 Z " fill="#CFCECF" transform="translate(357.375,59.625)"/>
<path d="M0 0 C16.40860918 3.78956156 16.40860918 3.78956156 22.875 5.625 C28.1890255 7.1188044 33.55659692 8.10504978 39 9 C35.91190305 10.76462683 34.76687864 11 31 11 C32.37359374 17.10486108 35.87978934 20.55563198 40 25 C41.15215974 26.32787038 42.29851424 27.66081247 43.4375 29 C44.283125 29.99 45.12875 30.98 46 32 C42.0238718 30.3982422 39.32898753 27.6263777 36.375 24.625 C35.64023437 23.90183594 35.64023437 23.90183594 34.890625 23.1640625 C32.38747434 20.64723342 30.17285686 18.38984239 29 15 C29.375 11.75 29.375 11.75 30 9 C28.72125 8.7525 27.4425 8.505 26.125 8.25 C24.0829694 7.83512058 22.04137667 7.41808515 20 7 C19.27135742 6.8551416 18.54271484 6.7102832 17.79199219 6.56103516 C15.35859028 6.07405693 12.92930021 5.56950959 10.5 5.0625 C9.69836426 4.90491211 8.89672852 4.74732422 8.07080078 4.58496094 C2.22752426 3.34128639 2.22752426 3.34128639 0 0 Z " fill="#C4C4C4" transform="translate(315,155)"/>
<path d="M0 0 C0.33 0 0.66 0 1 0 C1.12518878 6.44026704 0.92197272 12.82364649 0.5 19.25 C-0.1864881 30.18633972 -0.73350484 40.88328703 1.5546875 51.6796875 C2.09232017 54.48103668 2.15375126 57.15560178 2 60 C-1.19846156 61.06615385 -2.30260922 60.95342597 -5.5 60.25 C-6.66015625 60.01023437 -6.66015625 60.01023437 -7.84375 59.765625 C-10 59 -10 59 -13 56 C-6.07 57.485 -6.07 57.485 1 59 C0.34 57.68 -0.32 56.36 -1 55 C-2.48559861 48.16046219 -2.19488267 41.21360039 -2.1875 34.25 C-2.1882251 33.56001923 -2.1889502 32.87003845 -2.18969727 32.15914917 C-2.18843804 21.33374349 -1.64547024 10.71024825 0 0 Z " fill="#B4B4B4" transform="translate(444,496)"/>
<path d="M0 0 C0 6.23122277 -5.4286285 10.68569865 -9.5859375 14.859375 C-10.59527344 15.85710937 -10.59527344 15.85710937 -11.625 16.875 C-12.305625 17.56335938 -12.98625 18.25171875 -13.6875 18.9609375 C-14.33976563 19.610625 -14.99203125 20.2603125 -15.6640625 20.9296875 C-16.25654785 21.51991699 -16.8490332 22.11014648 -17.45947266 22.71826172 C-19 24 -19 24 -21 24 C-20.80664062 24.58007812 -20.61328125 25.16015625 -20.4140625 25.7578125 C-18.94270833 30.171875 -17.47135417 34.5859375 -16 39 C-18.27701975 36.89310241 -19.81624074 34.87482187 -21.25 32.125 C-21.60578125 31.46757812 -21.9615625 30.81015625 -22.328125 30.1328125 C-23.21204241 27.32688863 -22.91385636 25.78508606 -22 23 C-20.4765625 20.8671875 -20.4765625 20.8671875 -18.625 18.875 C-18.01914063 18.21242188 -17.41328125 17.54984375 -16.7890625 16.8671875 C-16.19867188 16.25101562 -15.60828125 15.63484375 -15 15 C-14.47148437 14.42507813 -13.94296875 13.85015625 -13.3984375 13.2578125 C-12 12 -12 12 -10 12 C-9.75507813 11.42765625 -9.51015625 10.8553125 -9.2578125 10.265625 C-7.78889901 7.61975598 -6.04651756 5.85146861 -3.875 3.75 C-3.15054688 3.04359375 -2.42609375 2.3371875 -1.6796875 1.609375 C-1.12539062 1.07828125 -0.57109375 0.5471875 0 0 Z " fill="#818181" transform="translate(227,434)"/>
<path d="M0 0 C0.33 0 0.66 0 1 0 C0.9278125 0.94230469 0.855625 1.88460938 0.78125 2.85546875 C-0.11263093 16.06575187 -0.06876667 29.25249293 0.03710938 42.48510742 C0.09776224 52.04238224 -0.2104183 61.47214587 -1 71 C-1.33 71 -1.66 71 -2 71 C-2.04638017 62.48103626 -2.08189803 53.96212546 -2.10362434 45.4430666 C-2.1140529 41.48714545 -2.1281951 37.53131082 -2.15087891 33.57543945 C-2.17264046 29.75641723 -2.18457561 25.93747812 -2.18975449 22.11839867 C-2.1934443 20.66277954 -2.20064961 19.20716485 -2.21146011 17.75158119 C-2.22601926 15.70969506 -2.22797612 13.66815055 -2.22705078 11.6262207 C-2.231492 10.46484085 -2.23593323 9.303461 -2.24050903 8.10688782 C-2.00005603 5.00072374 -1.32371596 2.80083349 0 0 Z " fill="#BDBDBD" transform="translate(447,422)"/>
<path d="M0 0 C2.86299506 2.86299506 2.99421225 4.65852284 3.0625 8.6875 C3.041875 9.780625 3.02125 10.87375 3 12 C-2.34265249 14.26500801 -6.73374318 14.07486099 -12.375 13.625 C-13.20644531 13.56828125 -14.03789063 13.5115625 -14.89453125 13.453125 C-16.93044876 13.3127169 -18.96535843 13.15782335 -21 13 C-21 9.04 -21 5.08 -21 1 C-20.67 1 -20.34 1 -20 1 C-20 3.97 -20 6.94 -20 10 C-12.74 10.33 -5.48 10.66 2 11 C1.34 8.69 0.68 6.38 0 4 C0 2.68 0 1.36 0 0 Z " fill="#C1C1C1" transform="translate(126,553)"/>
<path d="M0 0 C0 3.69859196 -0.79844389 4.22773143 -3.25 6.875 C-3.89453125 7.58398438 -4.5390625 8.29296875 -5.203125 9.0234375 C-6.09257812 10.00183594 -6.09257812 10.00183594 -7 11 C-7.66 11.825 -8.32 12.65 -9 13.5 C-13.0138729 18.51734113 -17.19783443 23.27924744 -21.875 27.6875 C-24.55552523 30.30206152 -25.88195956 32.10466535 -26 36 C-26.33 36 -26.66 36 -27 36 C-27.43448977 33.0309866 -27.5345908 30.85649494 -25.91015625 28.25390625 C-22.80528345 24.55606039 -19.29887792 21.52532938 -15.5859375 18.4609375 C-13.24170735 16.30147426 -11.73724696 13.6601594 -10 11 C-8.25429575 9.14947286 -6.44507828 7.38233434 -4.6171875 5.61328125 C-2.8700066 3.87032059 -1.3876928 2.04072471 0 0 Z " fill="#6A6A6A" transform="translate(374,195)"/>
<path d="M0 0 C3.31538419 0.29930552 4.69817293 0.69131322 7.0625 3.109375 C7.701875 3.98078125 8.34125 4.8521875 9 5.75 C12.19379382 9.99888206 12.19379382 9.99888206 15.8125 13.875 C17.79791379 15.80368768 19.41055132 17.74130978 21 20 C15.45708707 18.59870179 12.82445745 14.67844254 9.375 10.4375 C8.24266786 9.05651384 7.10487178 7.67998473 5.9609375 6.30859375 C5.21529541 5.39291626 5.21529541 5.39291626 4.45458984 4.45874023 C2.95357384 2.73536497 2.95357384 2.73536497 0 2 C0.33 5.63 0.66 9.26 1 13 C0.34 12.67 -0.32 12.34 -1 12 C-1.484375 10.0390625 -1.484375 10.0390625 -1.75 7.625 C-1.84796875 6.83351562 -1.9459375 6.04203125 -2.046875 5.2265625 C-2 3 -2 3 0 0 Z " fill="#D7D7D7" transform="translate(299,126)"/>
<path d="M0 0 C6.84175041 -0.53197195 13.05458796 0.23708329 19.6875 1.8125 C20.38738037 1.97782227 21.08726074 2.14314453 21.80834961 2.31347656 C26.69293333 3.53218393 31.31315176 5.16418627 36 7 C36 7.33 36 7.66 36 8 C31.23718947 7.61590238 26.96996504 7.08614699 22.4375 5.5625 C17.12665519 3.83143349 11.80710148 3.25279544 6.26928711 2.73461914 C4.50510489 2.55387934 2.75046802 2.28437206 1 2 C0.67 1.34 0.34 0.68 0 0 Z " fill="#A3A3A3" transform="translate(390,119)"/>
<path d="M0 0 C8.09071567 1.18787016 14.59708289 7.25054118 19.9375 13.125 C19.6075 13.785 19.2775 14.445 18.9375 15.125 C18.11765625 14.42632812 17.2978125 13.72765625 16.453125 13.0078125 C15.36476039 12.08833205 14.27620885 11.16907282 13.1875 10.25 C12.64867187 9.78980469 12.10984375 9.32960938 11.5546875 8.85546875 C6.0280274 4.20498647 3.20489605 2.84548477 -4.0625 3.125 C-3.55646008 5.29374252 -3.06266187 7.12467627 -2.0625 9.125 C-4.57820636 8.15117818 -5.80194098 7.66348865 -7 5.1875 C-7.0625 3.125 -7.0625 3.125 -5.8203125 1.50390625 C-3.64145256 -0.20528832 -2.72978265 -0.24771167 0 0 Z " fill="#CFCFCF" transform="translate(455.0625,33.875)"/>
<path d="M0 0 C-0.90621094 0.31453125 -1.81242187 0.6290625 -2.74609375 0.953125 C-10.99019899 3.83810945 -10.99019899 3.83810945 -19 7.3125 C-22.45282112 8.91951394 -25.14384936 9.39550263 -29 9 C-28 7 -28 7 -25.55859375 6.03515625 C-24.52863281 5.71417969 -23.49867188 5.39320313 -22.4375 5.0625 C-18.75535629 3.8891177 -15.10600009 2.70309361 -11.5 1.3125 C-4.30769231 -1.38461538 -4.30769231 -1.38461538 0 0 Z " fill="#9C9C9C" transform="translate(233,287)"/>
<path d="M0 0 C0.33 0 0.66 0 1 0 C3.29612756 11.52164009 3.29612756 11.52164009 3 17 C-0.19846156 18.06615385 -1.30260922 17.95342597 -4.5 17.25 C-5.66015625 17.01023437 -5.66015625 17.01023437 -6.84375 16.765625 C-9 16 -9 16 -12 13 C-7.38 13.99 -2.76 14.98 2 16 C1.34 14.68 0.68 13.36 0 12 C-0.1953125 8.984375 -0.1953125 8.984375 -0.125 5.75 C-0.10695313 4.67234375 -0.08890625 3.5946875 -0.0703125 2.484375 C-0.03550781 1.25460937 -0.03550781 1.25460937 0 0 Z " fill="#CDCDCD" transform="translate(443,539)"/>
<path d="M0 0 C0.66 0.33 1.32 0.66 2 1 C1.32904297 1.65355469 1.32904297 1.65355469 0.64453125 2.3203125 C-2.22193277 5.14399348 -4.92747747 7.90888195 -7.4375 11.0625 C-10.57662308 14.66100694 -14.10357501 17.27346936 -18 20 C-16.5735422 16.7413364 -14.83295838 14.5975146 -12.3046875 12.109375 C-11.23154297 11.04589844 -11.23154297 11.04589844 -10.13671875 9.9609375 C-9.39035156 9.23132813 -8.64398438 8.50171875 -7.875 7.75 C-7.12089844 7.00492188 -6.36679687 6.25984375 -5.58984375 5.4921875 C-3.73099228 3.6568658 -1.86762995 1.8263809 0 0 Z " fill="#6C6C6C" transform="translate(465,142)"/>
<path d="M0 0 C1.4540625 0.0309375 1.4540625 0.0309375 2.9375 0.0625 C2.9375 0.7225 2.9375 1.3825 2.9375 2.0625 C2.174375 2.31 1.41125 2.5575 0.625 2.8125 C-2.5084702 4.269928 -3.42977513 5.03029667 -5.0625 8.0625 C-5.88441341 11.03679916 -6.51123406 14.02729457 -7.0625 17.0625 C-7.7225 17.0625 -8.3825 17.0625 -9.0625 17.0625 C-8.6327503 11.04600415 -7.48295587 0.15271339 0 0 Z " fill="#6C6C6C" transform="translate(409.0625,58.9375)"/>
<path d="M0 0 C3 1 3 1 4.09082031 2.91772461 C4.41663086 3.73764893 4.74244141 4.55757324 5.078125 5.40234375 C5.61179687 6.73749023 5.61179687 6.73749023 6.15625 8.09960938 C6.5171875 9.03611328 6.878125 9.97261719 7.25 10.9375 C7.81460937 12.33645508 7.81460937 12.33645508 8.390625 13.76367188 C10.41432595 18.90848514 10.41432595 18.90848514 11 21 C10.67 21.66 10.34 22.32 10 23 C9.61328125 22.154375 9.2265625 21.30875 8.828125 20.4375 C5.33803691 12.82124362 5.33803691 12.82124362 1.625 5.3125 C0 2 0 2 0 0 Z " fill="#B9B9B9" transform="translate(440,95)"/>
<path d="M0 0 C0.33 0 0.66 0 1 0 C0.89037184 3.1257396 0.75968759 6.25024781 0.625 9.375 C0.5940625 10.26445312 0.563125 11.15390625 0.53125 12.0703125 C0.49257813 12.92109375 0.45390625 13.771875 0.4140625 14.6484375 C0.3826416 15.43395996 0.3512207 16.21948242 0.31884766 17.02880859 C0 19 0 19 -2 21 C-2.05420701 18.43721301 -2.09377007 15.87558517 -2.125 13.3125 C-2.15013672 12.2306543 -2.15013672 12.2306543 -2.17578125 11.12695312 C-2.21391569 6.95123219 -1.8789919 3.7505862 0 0 Z " fill="#909090" transform="translate(447,422)"/>
<path d="M0 0 C3 1 3 1 4.53515625 3.984375 C5.05537262 5.23502305 5.56405998 6.49051472 6.0625 7.75 C6.31837891 8.37132813 6.57425781 8.99265625 6.83789062 9.6328125 C7.57009185 11.41720007 8.28538876 13.20849549 9 15 C9.39058594 15.97453125 9.78117187 16.9490625 10.18359375 17.953125 C10.45300781 18.62859375 10.72242188 19.3040625 11 20 C10.34 20 9.68 20 9 20 C7.86988348 17.7941576 6.74584212 15.58554973 5.625 13.375 C5.30789063 12.75753906 4.99078125 12.14007813 4.6640625 11.50390625 C2.76407197 7.74350833 1.23211496 4.04482184 0 0 Z " fill="#B5B5B5" transform="translate(363,71)"/>
<path d="M0 0 C0.94875 0.144375 1.8975 0.28875 2.875 0.4375 C5.15562828 3.85844242 5.09425007 5.11937222 5 9.125 C4.98195313 10.11886719 4.96390625 11.11273438 4.9453125 12.13671875 C4.91050781 13.27560547 4.91050781 13.27560547 4.875 14.4375 C4.545 14.4375 4.215 14.4375 3.875 14.4375 C3.545 10.4775 3.215 6.5175 2.875 2.4375 C-0.425 3.0975 -3.725 3.7575 -7.125 4.4375 C-4.79950611 1.57535367 -3.72105477 0.52094767 0 0 Z " fill="#ADADAD" transform="translate(474.125,137.5625)"/>
<path d="M0 0 C2.40875078 3.05253102 4.32543798 6.21351847 6.1875 9.625 C6.71730469 10.58664062 7.24710937 11.54828125 7.79296875 12.5390625 C9 15 9 15 9 17 C5.13184516 15.71061505 4.83234017 14.58833283 3 11 C0 3.97260274 0 3.97260274 0 0 Z " fill="#ACACAC" transform="translate(260,526)"/>
<path d="M0 0 C1.34326637 3.67448348 0.64666147 5.88933253 -0.6875 9.5 C-1.18830078 10.90765625 -1.18830078 10.90765625 -1.69921875 12.34375 C-3.09060287 15.18501486 -4.65348858 16.9054298 -7 19 C-7 15.18158263 -5.7078062 12.93772213 -4.0625 9.5 C-1.83206201 4.8302405 -1.83206201 4.8302405 0 0 Z " fill="#BABABA" transform="translate(476,95)"/>
<path d="M0 0 C2.99254618 1.40191353 5.5954611 3.03367489 8.25 5 C8.95640625 5.515625 9.6628125 6.03125 10.390625 6.5625 C11.18726563 7.2740625 11.18726563 7.2740625 12 8 C12 8.66 12 9.32 12 10 C6.12871177 8.74186681 3.34844493 5.73769335 0 1 C0 0.67 0 0.34 0 0 Z " fill="#9C9C9C" transform="translate(303,145)"/>
<path d="M0 0 C0.33 0 0.66 0 1 0 C0.88521587 2.06309376 0.75773802 4.12548354 0.625 6.1875 C0.55539062 7.33605469 0.48578125 8.48460937 0.4140625 9.66796875 C0.02490426 12.79959117 -0.6809851 15.15285809 -2 18 C-2.33 18 -2.66 18 -3 18 C-3 15.69 -3 13.38 -3 11 C-2.34 11 -1.68 11 -1 11 C-0.67 7.37 -0.34 3.74 0 0 Z " fill="#B1B1B1" transform="translate(477,152)"/>
<path d="M0 0 C1.43410153 3.78819273 0.51009497 6.06521279 -0.9375 9.75 C-1.31777344 10.73484375 -1.69804687 11.7196875 -2.08984375 12.734375 C-2.39019531 13.48203125 -2.69054687 14.2296875 -3 15 C-4.15782198 11.61915982 -3.83835147 9.70336781 -2.625 6.375 C-2.34914063 5.59898437 -2.07328125 4.82296875 -1.7890625 4.0234375 C-1 2 -1 2 0 0 Z " fill="#B3B3B3" transform="translate(454,399)"/>
<path d="M0 0 C1.08667969 0.01804687 2.17335937 0.03609375 3.29296875 0.0546875 C4.54013672 0.08949219 4.54013672 0.08949219 5.8125 0.125 C5.8125 0.455 5.8125 0.785 5.8125 1.125 C4.06465171 1.48963732 2.31409498 1.8413078 0.5625 2.1875 C-0.89929688 2.48333984 -0.89929688 2.48333984 -2.390625 2.78515625 C-5.055619 3.10897535 -6.67621723 2.98003199 -9.1875 2.125 C-5.66070901 -0.22619399 -4.15870515 -0.08943452 0 0 Z " fill="#5D5D5D" transform="translate(242.1875,283.875)"/>
<path d="M0 0 C2.31 0 4.62 0 7 0 C7 0.33 7 0.66 7 1 C5.35 1.33 3.7 1.66 2 2 C1.67 3.32 1.34 4.64 1 6 C0.34 5.34 -0.32 4.68 -1 4 C-0.625 1.875 -0.625 1.875 0 0 Z " fill="#3B3B3B" transform="translate(451,36)"/>
</svg>
