<?xml version="1.0" encoding="UTF-8"?>
<svg version="1.1" xmlns="http://www.w3.org/2000/svg" width="601" height="590">
<path d="M0 0 C198.33 0 396.66 0 601 0 C601 194.7 601 389.4 601 590 C402.67 590 204.34 590 0 590 C0 395.3 0 200.6 0 0 Z " fill="#F1F1F1" transform="translate(0,0)"/>
<path d="M0 0 C1.93359375 0.1875 1.93359375 0.1875 4 1 C5.16015625 2.75 5.16015625 2.75 6.0625 5 C6.38992188 5.81210937 6.71734375 6.62421875 7.0546875 7.4609375 C7.36664063 8.29882812 7.67859375 9.13671875 8 10 C8.29132813 10.77601562 8.58265625 11.55203125 8.8828125 12.3515625 C11.933805 20.97135686 12.18207846 29.10642176 12.1875 38.1875 C12.19974609 39.24775391 12.21199219 40.30800781 12.22460938 41.40039062 C12.24517745 52.65112893 10.73525944 62.76117744 6 73 C5.38511719 74.40185547 5.38511719 74.40185547 4.7578125 75.83203125 C-2.57911724 91.64580918 -14.81333497 104.03631463 -27.94140625 115.2265625 C-31.47028601 118.26662211 -34.88270811 121.43571655 -38.3203125 124.578125 C-40.64120537 126.67572497 -42.99500737 128.72027043 -45.375 130.75 C-48.65243362 133.6093248 -51.43775557 136.4769139 -54 140 C-54 140.99 -54 141.98 -54 143 C-48.3505778 142.9333563 -48.3505778 142.9333563 -44 139.875 C-43.34 138.92625 -42.68 137.9775 -42 137 C-40.7967105 135.88799453 -39.56409611 134.80734052 -38.3125 133.75 C-32.69668628 128.9514129 -27.59364621 123.65690588 -22.4375 118.375 C-21.633125 117.59125 -20.82875 116.8075 -20 116 C-19.38382812 115.38769531 -18.76765625 114.77539062 -18.1328125 114.14453125 C-12.85872138 109.15902248 -12.85872138 109.15902248 -8.625 108.375 C-6 109 -6 109 -4 112 C-3.3950186 121.22596639 -4.19965116 131.50510258 -8 140 C-8.66 140 -9.32 140 -10 140 C-10.19851563 140.69867188 -10.39703125 141.39734375 -10.6015625 142.1171875 C-12.48627044 146.00242341 -15.17123728 148.29524482 -18.375 151.125 C-19.24125 151.91197266 -19.24125 151.91197266 -20.125 152.71484375 C-22.98409455 155.29325094 -25.8631896 157.75942114 -29 160 C-28.48601506 164.61233853 -27.33732719 167.5390062 -24.75 171.375 C-12.74331946 189.38502081 -5.65421771 206.75632629 -0.72680664 227.91479492 C-0.17981523 230.23670638 0.43595652 232.54257764 1.0847168 234.83813477 C2.16330392 239.15098191 2.19078661 243.18707637 2.0546875 247.609375 C2.02633615 249.25877205 1.99903004 250.90818733 1.97265625 252.55761719 C1.94776123 253.83155334 1.94776123 253.83155334 1.92236328 255.13122559 C1.67928057 268.57156922 1.86450222 281.12956527 5.08984375 294.25 C8.16062644 306.90215187 4.54731251 319.59276549 -2.11425781 330.55078125 C-5.97519482 336.53971535 -10.36526307 342.03389303 -14.93359375 347.5 C-21.46780565 355.40528472 -24.84426675 363.24695484 -28 373 C-28.6659824 375.00022796 -29.33242307 377.00030365 -30 379 C-30.66 379 -31.32 379 -32 379 C-32.48157839 382.31215393 -32.95981111 385.62478306 -33.4375 388.9375 C-33.57220703 389.86369141 -33.70691406 390.78988281 -33.84570312 391.74414062 C-33.97783203 392.66259766 -34.10996094 393.58105469 -34.24609375 394.52734375 C-34.36654053 395.35999756 -34.4869873 396.19265137 -34.61108398 397.05053711 C-34.73942627 398.02385986 -34.86776855 398.99718262 -35 400 C-35.08569244 400.62446014 -35.17138489 401.24892029 -35.25967407 401.89230347 C-36.09811025 408.55361867 -36.20272275 415.18306926 -36.28125 421.890625 C-36.30886414 423.72303741 -36.30886414 423.72303741 -36.33703613 425.59246826 C-36.39543749 429.47826609 -36.44836824 433.3641067 -36.5 437.25 C-36.56826216 442.35945493 -36.64199369 447.46879142 -36.71875 452.578125 C-36.73232544 453.72960022 -36.74590088 454.88107544 -36.7598877 456.06744385 C-36.86031806 462.7426753 -37.2260574 469.34414132 -37.77838135 475.99658203 C-38.08223297 480.11443678 -38.14406997 484.20859069 -38.1328125 488.3359375 C-38.13376923 489.14439117 -38.13472595 489.95284485 -38.13571167 490.78579712 C-38.13638308 492.46771321 -38.13460273 494.14963207 -38.13037109 495.83154297 C-38.12496482 498.39166055 -38.13037338 500.95160614 -38.13671875 503.51171875 C-38.13605861 505.16145872 -38.13477877 506.81119857 -38.1328125 508.4609375 C-38.13584885 509.59237686 -38.13584885 509.59237686 -38.13894653 510.74667358 C-38.11912613 515.26325606 -37.73883147 519.54279925 -37 524 C-42.31982993 524.18344241 -45.92508666 523.75646701 -51 522 C-51.01839432 520.83442566 -51.03678864 519.66885132 -51.05574036 518.46795654 C-51.23285801 507.35102201 -51.42360095 496.23438882 -51.62686634 485.11790085 C-51.73088981 479.40616077 -51.83051179 473.69442245 -51.91918945 467.98242188 C-52.41901351 433.2747906 -52.41901351 433.2747906 -55.66184998 398.74281311 C-56.34908819 393.16846492 -56.74918613 387.56155466 -57.08708191 381.95599365 C-57.36139844 378.67968318 -57.54860312 376.51905592 -59.74609375 373.9921875 C-62.37861313 372.83333148 -64.25430469 372.63179994 -67.125 372.6875 C-67.99382812 372.69136719 -68.86265625 372.69523437 -69.7578125 372.69921875 C-72.2006081 372.79606447 -72.2006081 372.79606447 -74 375 C-75.12466346 385.76463593 -73.40196015 396.52098215 -71 407 C-70.67 407.33 -70.34 407.66 -70 408 C-67.04990497 422.23741515 -66.7317782 436.50946809 -66.52639771 450.98141479 C-66.26941271 467.72324876 -65.20071649 484.368654 -63.9375 501.0625 C-63.79624191 502.92973221 -63.79624191 502.92973221 -63.65213013 504.83468628 C-63.11496866 511.89087811 -62.56493238 518.94597789 -62 526 C-71.44996397 526.3149988 -71.44996397 526.3149988 -74 524 C-74.84960938 520.94091797 -74.84960938 520.94091797 -75.34375 516.9921875 C-75.43822418 516.28341461 -75.53269836 515.57464172 -75.6300354 514.84439087 C-75.93637166 512.52305818 -76.21791183 510.19939229 -76.5 507.875 C-76.81329893 505.45859544 -77.1330828 503.0431077 -77.45339966 500.62762451 C-77.66691677 499.01530256 -77.87840091 497.4027101 -78.08786011 495.78985596 C-78.93235807 489.32805224 -79.98301308 482.91584987 -81.125 476.5 C-83.18312702 464.68809594 -84.47501482 452.81031461 -85.70068359 440.88720703 C-86.11173173 436.92223538 -86.55431145 432.96121317 -87 429 C-87.66 429 -88.32 429 -89 429 C-89.28198242 428.12263184 -89.56396484 427.24526367 -89.85449219 426.34130859 C-90.91319319 423.06245696 -91.98017356 419.78653881 -93.05273438 416.51220703 C-93.51372295 415.09921893 -93.97146356 413.68516662 -94.42578125 412.27001953 C-95.08245668 410.22654928 -95.75103271 408.18729457 -96.421875 406.1484375 C-97.01887207 404.31031494 -97.01887207 404.31031494 -97.62792969 402.43505859 C-99.03873932 398.90301384 -100.8281539 396.10829438 -103 393 C-103.33 392.113125 -103.66 391.22625 -104 390.3125 C-105.26624247 387.38431428 -106.22173155 386.57952461 -109 385 C-111.63680256 384.74494471 -114.04438062 384.65262219 -116.67578125 384.69921875 C-118.23120458 384.69602911 -119.78662549 384.6914158 -121.34204102 384.68554688 C-122.1540799 384.68675537 -122.96611877 384.68796387 -123.80276489 384.68920898 C-138.95504509 384.67889116 -152.27626261 383.17244098 -166.81445312 378.65966797 C-171.55043183 377.23019808 -176.09516306 375.89641169 -181 377 C-184.88239567 379.5280716 -187.85484651 382.62471333 -191 386 C-192.21244374 387.04063997 -193.4398311 388.06436488 -194.6875 389.0625 C-197.09575232 391.10525092 -199.16652422 393.26228947 -201.21484375 395.6640625 C-204.97346971 400.00741867 -208.90921669 404.15902969 -212.875 408.3125 C-218.89651145 414.66616134 -224.58410495 421.11976753 -230 428 C-230.74121094 428.89589844 -231.48242188 429.79179687 -232.24609375 430.71484375 C-232.96925781 431.59269531 -233.69242188 432.47054688 -234.4375 433.375 C-235.39462891 434.53128906 -235.39462891 434.53128906 -236.37109375 435.7109375 C-240.33392496 441.27980822 -240.69349415 446.37420648 -240 453 C-239.49199536 455.81686114 -238.86344811 458.59403734 -238.1875 461.375 C-238.02233887 462.06505127 -237.85717773 462.75510254 -237.68701172 463.46606445 C-236.6912857 467.29300578 -235.51157959 469.97171523 -233 473 C-232.22400807 474.49748275 -231.49385779 476.01965535 -230.8125 477.5625 C-230.29623047 478.70912109 -230.29623047 478.70912109 -229.76953125 479.87890625 C-229 482 -229 482 -229 485 C-228.34 485 -227.68 485 -227 485 C-226.76925781 485.54301758 -226.53851563 486.08603516 -226.30078125 486.64550781 C-219.44955975 503.96623866 -219.44955975 503.96623866 -208.2734375 518.55859375 C-207 520 -207 520 -207 524 C-210.20147837 525.60073918 -213.53589278 525.63739573 -217 525 C-219.125 522.625 -219.125 522.625 -221 520 C-221.94875 519.731875 -222.8975 519.46375 -223.875 519.1875 C-234.26901041 515.23777604 -241.33190628 496.50191857 -246 487 C-246 486.34 -246 485.68 -246 485 C-246.66 485 -247.32 485 -248 485 C-249.00484204 483.04414675 -250.00373805 481.08523763 -251 479.125 C-251.556875 478.03445313 -252.11375 476.94390625 -252.6875 475.8203125 C-254 473 -254 473 -254 471 C-254.66 471 -255.32 471 -256 471 C-257.33819498 468.3773768 -258.6707151 465.75213401 -260 463.125 C-260.3815625 462.37863281 -260.763125 461.63226563 -261.15625 460.86328125 C-261.5171875 460.14785156 -261.878125 459.43242187 -262.25 458.6953125 C-262.58515625 458.03547363 -262.9203125 457.37563477 -263.265625 456.69580078 C-264 455 -264 455 -264 453 C-264.66 453 -265.32 453 -266 453 C-267.33819498 450.3773768 -268.6707151 447.75213401 -270 445.125 C-270.3815625 444.37863281 -270.763125 443.63226563 -271.15625 442.86328125 C-271.5171875 442.14785156 -271.878125 441.43242187 -272.25 440.6953125 C-272.58515625 440.03547363 -272.9203125 439.37563477 -273.265625 438.69580078 C-274 437 -274 437 -274 435 C-274.99 434.67 -275.98 434.34 -277 434 C-277.42429923 430.1067679 -277.30982329 428.44146757 -275.0234375 425.18359375 C-274.14945312 424.27738281 -273.27546875 423.37117188 -272.375 422.4375 C-271.68386108 421.71046875 -271.68386108 421.71046875 -270.97875977 420.96875 C-268.73497776 418.64017046 -266.44546553 416.5473188 -263.9375 414.5 C-257.75171969 409.23550612 -248.77500234 400.32538672 -247.734375 391.83203125 C-247.64302329 389.38529119 -247.64302329 389.38529119 -248 386 C-249.02758892 384.77428072 -249.02758892 384.77428072 -251.1875 384.671875 C-255.09011368 385.12717993 -256.93643632 386.81446687 -260 389.25 C-260.56033936 389.69384033 -261.12067871 390.13768066 -261.69799805 390.5949707 C-267.59782402 395.34164514 -273.10566754 400.50863331 -278.61181641 405.70019531 C-283.11729675 409.91883361 -287.84981862 413.87499903 -292.57543945 417.8425293 C-298.110468 422.49472926 -303.52916418 427.23833827 -308.82885742 432.1574707 C-311.52027366 434.65462872 -314.2508015 437.07727341 -317.0625 439.4375 C-321.54837981 443.31337523 -325.43504013 447.72698466 -329.38671875 452.1328125 C-331.08501176 453.99611155 -332.84306049 455.80721188 -334.6640625 457.55078125 C-336.9806592 459.97972126 -338.28026075 462.0376369 -339.6875 465.0625 C-340.28111328 466.31740234 -340.28111328 466.31740234 -340.88671875 467.59765625 C-341.43779297 468.78681641 -341.43779297 468.78681641 -342 470 C-342.66214309 471.33558555 -343.32719608 472.66975299 -344 474 C-344.66 474 -345.32 474 -346 474 C-346.2475 475.216875 -346.495 476.43375 -346.75 477.6875 C-348.45629218 485.35976415 -350.74841447 492.93441955 -353.625 500.25 C-357.52731795 510.89268532 -358.28931133 519.45544298 -354 530 C-354 531.32 -354 532.64 -354 534 C-358.58557452 534.9438817 -362.65109631 534.98924907 -367.3125 534.625 C-369.16294922 534.48964844 -369.16294922 534.48964844 -371.05078125 534.3515625 C-374 534 -374 534 -375 533 C-376.97258686 509.99400129 -376.14404179 486.66722479 -363.875 466.328125 C-361.63277145 462.34816932 -360.44490643 458.44758113 -359.25 454.0625 C-359.02957031 453.28326172 -358.80914062 452.50402344 -358.58203125 451.70117188 C-358.04638073 449.80310589 -357.52199702 447.90186621 -357 446 C-356.34 446 -355.68 446 -355 446 C-354.83564453 445.01773438 -354.83564453 445.01773438 -354.66796875 444.015625 C-354.14471014 441.00369739 -353.57217398 438.00300231 -353 435 C-352.82855469 433.9584375 -352.65710938 432.916875 -352.48046875 431.84375 C-350.92935416 423.91805482 -348.47973447 420.60868652 -342 416 C-339.67044783 414.25105269 -337.36385252 412.47334464 -335.0625 410.6875 C-334.45704346 410.21852295 -333.85158691 409.7495459 -333.2277832 409.26635742 C-325.6818264 403.31855955 -319.32123383 396.64246767 -315 388 C-314.34 388 -313.68 388 -313 388 C-312.87753906 387.26652344 -312.75507813 386.53304688 -312.62890625 385.77734375 C-312.02023765 383.08937248 -311.10534481 381.04469345 -309.9375 378.5625 C-305.92436431 367.77356274 -307.68492964 355.09599251 -308.36477661 343.8032074 C-308.95084038 334.00723952 -309.2486968 324.2324854 -309.29516602 314.41894531 C-309.30684456 312.70499522 -309.32753651 310.99108568 -309.35668945 309.27734375 C-309.39942793 306.7445517 -309.41551907 304.21279528 -309.42578125 301.6796875 C-309.44328934 300.92436737 -309.46079742 300.16904724 -309.47883606 299.39083862 C-309.45081249 292.47388917 -307.12498649 287.39655026 -302.5546875 282.2421875 C-294.98196786 275.55258386 -287.74306469 269.99786606 -278 267 C-277.67 266.34 -277.34 265.68 -277 265 C-274.6703126 264.09962336 -272.37948311 263.30610631 -270 262.5625 C-268.62108816 262.11850695 -267.24218188 261.67449661 -265.86328125 261.23046875 C-265.19506348 261.01825684 -264.5268457 260.80604492 -263.83837891 260.58740234 C-261.61233031 259.87613104 -259.39963214 259.12832067 -257.1875 258.375 C-255.79167812 257.91663178 -254.39584492 257.45829805 -253 257 C-251.89205078 256.61521484 -251.89205078 256.61521484 -250.76171875 256.22265625 C-233.9961465 250.70730433 -215.34319548 250.95539683 -197.875 250.5 C-197.15740509 250.4801001 -196.43981018 250.4602002 -195.70046997 250.43969727 C-184.19887058 250.12240751 -172.69595369 249.92288128 -161.19140625 249.75 C-159.80131001 249.72881438 -158.41121398 249.70761482 -157.02111816 249.68640137 C-150.73843117 249.59117289 -144.45575083 249.49913162 -138.1728487 249.41920471 C-134.90554928 249.37661084 -131.63833168 249.32829405 -128.37109375 249.28125 C-127.1664296 249.26771484 -125.96176544 249.25417969 -124.72059631 249.24023438 C-123.61453537 249.22347656 -122.50847443 249.20671875 -121.36889648 249.18945312 C-120.40048325 249.17692505 -119.43207001 249.16439697 -118.43431091 249.15148926 C-115.85961423 249.09581242 -115.85961423 249.09581242 -113 248 C-113 247.34 -113 246.68 -113 246 C-109.98205785 244.70150434 -106.96016009 243.41247055 -103.9375 242.125 C-103.08994141 241.76019531 -102.24238281 241.39539063 -101.36914062 241.01953125 C-89.55042614 236 -89.55042614 236 -85 236 C-85.66 228.08 -86.32 220.16 -87 212 C-90.81397948 210.72867351 -94.40342217 210.85487376 -98.375 210.875 C-99.13039063 210.87113281 -99.88578125 210.86726562 -100.6640625 210.86328125 C-104.59845664 210.87015956 -108.14755682 211.13608002 -112 212 C-117.58028648 212.70114999 -122.71017382 213.19579811 -127.8125 210.53125 C-131.62615928 207.45098674 -134.44139244 204.42348545 -135.5625 199.5625 C-135.61866069 195.48382953 -134.17456913 193.42759666 -131.5625 190.375 C-128.2514706 187.04675555 -124.73267467 183.99024754 -121.15625 180.953125 C-112.46834979 173.10421525 -112.46834979 173.10421525 -107 163 C-109.97 162.34 -112.94 161.68 -116 161 C-116 160.34 -116 159.68 -116 159 C-116.68707031 158.80277344 -117.37414062 158.60554687 -118.08203125 158.40234375 C-122.06347956 156.4889034 -124.64492507 153.71533812 -127.6875 150.5625 C-128.26822266 149.97662109 -128.84894531 149.39074219 -129.44726562 148.78710938 C-135.94565006 142.1685236 -135.94565006 142.1685236 -136.125 138.3125 C-136.08375 137.549375 -136.0425 136.78625 -136 136 C-133.525 135.01 -133.525 135.01 -131 134 C-131.74685059 133.88406494 -132.49370117 133.76812988 -133.26318359 133.64868164 C-136.6343364 133.12339923 -140.00466692 132.59301539 -143.375 132.0625 C-144.550625 131.88009766 -145.72625 131.69769531 -146.9375 131.50976562 C-148.61972656 131.24389648 -148.61972656 131.24389648 -150.3359375 130.97265625 C-151.37282715 130.81031494 -152.4097168 130.64797363 -153.47802734 130.48071289 C-156 130 -156 130 -158 129 C-158 128.34 -158 127.68 -158 127 C-158.99 126.938125 -159.98 126.87625 -161 126.8125 C-169.46178187 125.51854543 -174.30825614 119.90227443 -179.3359375 113.40234375 C-182.0316075 109.51070749 -183.26566607 107.03264624 -183.125 102.25 C-183.10695313 101.45078125 -183.08890625 100.6515625 -183.0703125 99.828125 C-183.04710937 99.22484375 -183.02390625 98.6215625 -183 98 C-178.83139565 98.49153611 -177.21146257 100.64653605 -174.5625 103.75 C-173.77488281 104.65492188 -172.98726562 105.55984375 -172.17578125 106.4921875 C-171.45777344 107.31976563 -170.73976563 108.14734375 -170 109 C-168.3707726 110.70328319 -166.71358643 112.38161281 -165 114 C-164.30003906 114.67804688 -163.60007812 115.35609375 -162.87890625 116.0546875 C-159.15200013 118.57300398 -156.08994187 118.87231062 -151.6875 119.25 C-150.94693359 119.32734375 -150.20636719 119.4046875 -149.44335938 119.484375 C-147.63041732 119.67151741 -145.81535046 119.83787704 -144 120 C-146.8472625 114.55744513 -149.93645003 109.64338042 -153.70703125 104.796875 C-155.24650029 102.65743162 -156.2148611 100.51244448 -157 98 C-157.66 98 -158.32 98 -159 98 C-160.15082685 95.75243216 -161.29576858 93.50218252 -162.4375 91.25 C-162.76298828 90.61578125 -163.08847656 89.9815625 -163.42382812 89.328125 C-167.02057105 82.20879881 -167.21064152 76.56411491 -167.25 68.6875 C-167.2809375 67.15706055 -167.2809375 67.15706055 -167.3125 65.59570312 C-167.34355561 59.59032477 -166.84912821 55.31587343 -164 50 C-163.01 50.33 -162.02 50.66 -161 51 C-159.15149908 56.73940144 -158.46926851 62.51834652 -157.875 68.5 C-157.78863281 69.32242188 -157.70226562 70.14484375 -157.61328125 70.9921875 C-157.40376148 72.99426526 -157.20114956 74.99706397 -157 77 C-156.34 77 -155.68 77 -155 77 C-154.82726562 77.66902344 -154.65453125 78.33804688 -154.4765625 79.02734375 C-149.83309722 94.89606684 -139.91103099 111.90507136 -125.68359375 120.8828125 C-120.09757016 123.20828957 -113.98256747 123.54283411 -108 124 C-104.60764515 117.44144729 -104.81383352 111.74242439 -104.81469727 104.45068359 C-104.81252975 102.40310277 -104.79441745 100.35607794 -104.77539062 98.30859375 C-104.76492123 91.21034208 -105.08805117 84.84674166 -107 78 C-107.66 78 -108.32 78 -109 78 C-110.52534977 75.67151911 -111.93572374 73.3519787 -113.3125 70.9375 C-115.63975574 66.8975109 -117.98018621 62.94484761 -120.71484375 59.1640625 C-125.59045795 52.41321207 -126.13973302 45.81169986 -126.0625 37.625 C-126.05347656 36.37976563 -126.04445313 35.13453125 -126.03515625 33.8515625 C-126.01775391 32.44003906 -126.01775391 32.44003906 -126 31 C-125.01 31 -124.02 31 -123 31 C-120.34798374 36.20246595 -117.77730375 41.42696221 -115.375 46.75 C-114.95863281 47.67039063 -114.54226563 48.59078125 -114.11328125 49.5390625 C-113.74589844 50.35117188 -113.37851562 51.16328125 -113 52 C-110.13647311 58.22505846 -106.79153132 65.13897912 -101 69 C-98.53202462 69.53133884 -98.53202462 69.53133884 -96 69 C-93.91503812 67.12382491 -93.91503812 67.12382491 -92.25 64.625 C-91.36054687 63.40683594 -91.36054687 63.40683594 -90.453125 62.1640625 C-88.9865354 60.07918195 -88.9865354 60.07918195 -88 58 C-87.34 58 -86.68 58 -86 58 C-85.87753906 57.31550781 -85.75507813 56.63101563 -85.62890625 55.92578125 C-84.91575403 52.60807311 -83.95146135 49.42563463 -82.9375 46.1875 C-82.57527344 45.02605469 -82.21304687 43.86460938 -81.83984375 42.66796875 C-81.42412109 41.34732422 -81.42412109 41.34732422 -81 40 C-80.34 40 -79.68 40 -79 40 C-78.896875 38.741875 -78.79375 37.48375 -78.6875 36.1875 C-78.48228761 33.68390881 -78.25143708 32.34208055 -76.75390625 30.3046875 C-73.26044075 27.70598488 -69.2274496 27.61862458 -65 28 C-53.90018619 32.74101359 -47.87222005 50.91081787 -42.86669922 61.23583984 C-41.74735681 63.51425344 -40.55678524 65.75347534 -39.375 68 C-36.82729407 73.04359411 -34.93550169 78.32406734 -33.05419922 83.64453125 C-31.62370304 87.67660005 -31.62370304 87.67660005 -29 91 C-24.04553506 91.57802091 -22.00767682 91.63948722 -17.75 88.9375 C-14.70643751 86.04362091 -12.8964329 82.71992608 -11 79 C-10.34 79 -9.68 79 -9 79 C-8.27848191 76.64099405 -7.56687075 74.27965824 -6.8671875 71.9140625 C-6.30612554 70.02869215 -5.72901727 68.14799125 -5.1328125 66.2734375 C-1.70656221 54.95049606 -2.11948713 47.27372511 -7.59765625 36.84863281 C-12.84536109 27.38014468 -19.13818782 20.4743939 -27.6796875 13.8125 C-30 12 -30 12 -32 10 C-31.625 7.875 -31.625 7.875 -31 6 C-24.49628157 5.32252933 -21.07120141 6.98771178 -16 11 C-13.64615746 12.97642716 -11.34467502 15.00387227 -9.0625 17.0625 C-8.48226074 17.58102539 -7.90202148 18.09955078 -7.30419922 18.63378906 C-4.40531329 21.32518122 -2.71302866 23.10624801 -2 27 C-0.68 27 0.64 27 2 27 C1.835 25.700625 1.67 24.40125 1.5 23.0625 C0.9684362 18.34580713 0.92470459 13.74361065 1 9 C0.34 9 -0.32 9 -1 9 C-1.09765625 2.84765625 -1.09765625 2.84765625 -1 1 C-0.67 0.67 -0.34 0.34 0 0 Z " fill="#030303" transform="translate(482,30)"/>
<path d="M0 0 C6.73956737 -0.24340332 12.49344389 -0.00752272 18.875 2.1875 C26.43007989 4.60728267 34.03530233 6.50066248 41.78076172 8.21166992 C46.81917113 9.35720331 51.3182806 10.80504754 56 13 C55.56933512 18.05118813 54.34520197 20.27787701 50.6875 23.75 C49.90761719 24.50796875 49.12773437 25.2659375 48.32421875 26.046875 C45.28893331 28.59753504 43.44955141 30.01317774 39.421875 29.9765625 C38.09929687 29.80253906 38.09929687 29.80253906 36.75 29.625 C35.85796875 29.51414063 34.9659375 29.40328125 34.046875 29.2890625 C33.37140625 29.19367188 32.6959375 29.09828125 32 29 C32.12375 30.299375 32.2475 31.59875 32.375 32.9375 C32.4024931 38.72021549 29.8486402 42.80488854 26 47 C24.515 47.495 24.515 47.495 23 48 C23 48.66 23 49.32 23 50 C19.0965315 50.31227748 16.48465667 50.21324894 12.875 48.625 C7.82852331 44.01734737 5.34507953 38.03115612 3.8125 31.4375 C3.544375 30.303125 3.27625 29.16875 3 28 C2.34 27.67 1.68 27.34 1 27 C-0.0394775 23.8815675 -0.11494838 21.72524414 -0.09765625 18.45703125 C-0.09443359 17.38388672 -0.09121094 16.31074219 -0.08789062 15.20507812 C-0.07951172 14.08552734 -0.07113281 12.96597656 -0.0625 11.8125 C-0.05798828 10.68134766 -0.05347656 9.55019531 -0.04882812 8.38476562 C-0.03703498 5.58979073 -0.0205765 2.7949218 0 0 Z " fill="#ECECEC" transform="translate(390,119)"/>
<path d="M0 0 C4.11354723 1.37118241 4.43938688 3.24820356 6.375 7.0625 C8.25887872 10.74853668 10.15717099 14.29617385 12.40234375 17.7734375 C15.4060264 22.51102276 17.796506 27.49475024 20.1875 32.5625 C20.62513672 33.46935547 21.06277344 34.37621094 21.51367188 35.31054688 C27.89519709 48.74584959 27.89519709 48.74584959 26 55 C19.88060655 55.20397978 14.4053196 54.6111085 8.39453125 53.5 C3.16932631 52.73034956 -2.06069808 52.60268083 -7.3359375 52.44140625 C-11.17325994 51.97912753 -13.67930191 50.92764982 -17 49 C-17.54076624 42.94341806 -16.79948634 39.82734324 -13.2890625 34.859375 C-11.9831779 32.9757354 -10.97954296 31.06894121 -10 29 C-9.34 29 -8.68 29 -8 29 C-7.87367188 28.28972656 -7.74734375 27.57945313 -7.6171875 26.84765625 C-6.98657563 23.93806098 -6.11069488 21.24558424 -5.125 18.4375 C-3.05904399 12.36781172 -1.46041216 6.23994287 0 0 Z " fill="#E7E7E7" transform="translate(411,63)"/>
<path d="M0 0 C1.30710937 -0.01417969 2.61421875 -0.02835938 3.9609375 -0.04296875 C8.12818806 0.21915042 10.97054373 1.10354589 14.4375 3.375 C16.29508365 6.21025925 15.81130774 8.8960633 15.625 12.1875 C6.09874531 11.46853738 -2.29495951 8.21508075 -10.375 3.1875 C-10.375 2.5275 -10.375 1.8675 -10.375 1.1875 C-6.77617994 -0.01210669 -3.79362018 0.01863271 0 0 Z " fill="#E0E0E0" transform="translate(377.375,163.8125)"/>
<path d="M0 0 C0 3 0 3 -1.65234375 4.99291992 C-2.78349609 6.10050659 -2.78349609 6.10050659 -3.9375 7.23046875 C-4.74960937 8.03291016 -5.56171875 8.83535156 -6.3984375 9.66210938 C-7.25695312 10.49548828 -8.11546875 11.32886719 -9 12.1875 C-10.28777344 13.4549707 -10.28777344 13.4549707 -11.6015625 14.74804688 C-13.7278365 16.83888298 -15.86078464 18.92241983 -18 21 C-18.66 20.67 -19.32 20.34 -20 20 C-15.93271189 15.10654399 -11.72019588 10.72593464 -6.8671875 6.609375 C-4.44537851 4.52195805 -2.22485957 2.29438644 0 0 Z " fill="#CECECE" transform="translate(298,408)"/>
<path d="M0 0 C0 3 0 3 -1.17749023 4.45458984 C-1.71575439 4.95168457 -2.25401855 5.4487793 -2.80859375 5.9609375 C-3.39060547 6.51523438 -3.97261719 7.06953125 -4.57226562 7.640625 C-5.80976636 8.79130631 -7.04933357 9.93976945 -8.29101562 11.0859375 C-12.67499111 15.21796063 -12.67499111 15.21796063 -14 21 C-14.33 21 -14.66 21 -15 21 C-15.28139991 17.56395899 -15.38739631 15.60373452 -13.49609375 12.65625 C-12.47708984 11.58890625 -12.47708984 11.58890625 -11.4375 10.5 C-10.71433594 9.73816406 -9.99117188 8.97632813 -9.24609375 8.19140625 C-6.27757325 5.29516277 -3.21881904 2.61529047 0 0 Z " fill="#292929" transform="translate(362,210)"/>
<path d="M0 0 C0.66 0.33 1.32 0.66 2 1 C-6.27906977 10.58139535 -6.27906977 10.58139535 -9 13 C-9.66 13 -10.32 13 -11 13 C-9.46356148 9.31930113 -7.21849055 7.01224796 -4.375 4.25 C-3.55773437 3.45078125 -2.74046875 2.6515625 -1.8984375 1.828125 C-0.95871094 0.92320312 -0.95871094 0.92320312 0 0 Z " fill="#BFBFBF" transform="translate(439,157)"/>
<path d="M0 0 C0.66 0.33 1.32 0.66 2 1 C0.04761147 3.00612399 -1.91137822 5.00492433 -3.875 7 C-4.43058594 7.57234375 -4.98617187 8.1446875 -5.55859375 8.734375 C-7.00134404 10.19450782 -8.4974374 11.60149298 -10 13 C-10.66 13 -11.32 13 -12 13 C-10.44997253 9.11602311 -7.99523379 6.97020381 -4.875 4.25 C-3.96492187 3.45078125 -3.05484375 2.6515625 -2.1171875 1.828125 C-1.06917969 0.92320312 -1.06917969 0.92320312 0 0 Z " fill="#323232" transform="translate(188,305)"/>
<path d="M0 0 C0.66 0.33 1.32 0.66 2 1 C0.21427748 2.83947337 -1.57802449 4.67157741 -3.375 6.5 C-3.88289063 7.02464844 -4.39078125 7.54929688 -4.9140625 8.08984375 C-6.23832604 9.43153181 -7.61605865 10.71995815 -9 12 C-9.66 12 -10.32 12 -11 12 C-9.49650623 8.33213607 -7.36271208 6.31089607 -4.375 3.75 C-3.14910156 2.69039062 -3.14910156 2.69039062 -1.8984375 1.609375 C-1.27195312 1.07828125 -0.64546875 0.5471875 0 0 Z " fill="#BCBCBC" transform="translate(463,180)"/>
<path d="M0 0 C0.33 0.66 0.66 1.32 1 2 C-0.07507629 3.29854721 -1.16043736 4.58858361 -2.25 5.875 C-2.85328125 6.59429687 -3.4565625 7.31359375 -4.078125 8.0546875 C-5.97087634 9.97052118 -7.53657727 10.96449045 -10 12 C-8.43870938 7.78451534 -5.41308287 5.77312983 -2 3 C-1.34 2.01 -0.68 1.02 0 0 Z " fill="#BEBEBE" transform="translate(155,478)"/>
<path d="M0 0 C2.31 0 4.62 0 7 0 C7 0.33 7 0.66 7 1 C5.35 1.33 3.7 1.66 2 2 C1.67 3.32 1.34 4.64 1 6 C0.34 5.34 -0.32 4.68 -1 4 C-0.625 1.875 -0.625 1.875 0 0 Z " fill="#3B3B3B" transform="translate(451,36)"/>
</svg>
