<?xml version="1.0" encoding="UTF-8"?>
<svg version="1.1" xmlns="http://www.w3.org/2000/svg" width="609" height="588">
<path d="M0 0 C200.97 0 401.94 0 609 0 C609 194.04 609 388.08 609 588 C408.03 588 207.06 588 0 588 C0 393.96 0 199.92 0 0 Z " fill="#F1F1F1" transform="translate(0,0)"/>
<path d="M0 0 C3.04651246 0.76702973 5.06070443 1.87420737 7.25 4.125 C9.44669797 7.95150614 9.62145539 10.16044609 9.1875 14.5 C15.80904687 12.9669325 22.00293066 11.32339035 28.1875 8.5 C28.8475 8.5 29.5075 8.5 30.1875 8.5 C30.1875 7.84 30.1875 7.18 30.1875 6.5 C31.93442795 5.82532438 33.68518525 5.16055844 35.4375 4.5 C36.41203125 4.12875 37.3865625 3.7575 38.390625 3.375 C41.1875 2.5 41.1875 2.5 45.1875 2.5 C45.9837738 9.53866713 43.22536349 14.5482682 40.125 20.75 C39.62202393 21.77544922 39.11904785 22.80089844 38.60083008 23.85742188 C27.18848661 46.82483171 27.18848661 46.82483171 17.04711914 53.09350586 C14.70386291 54.8369787 13.40928124 55.83574302 12.47750854 58.62649536 C12.24483191 61.1830859 12.26082794 63.62653649 12.37109375 66.19140625 C12.38004166 67.13193344 12.38898956 68.07246063 12.39820862 69.04148865 C12.43620915 72.05048783 12.52999003 75.05481807 12.625 78.0625 C12.65660375 80.02533584 12.68462948 81.98823271 12.70898438 83.95117188 C12.79702282 89.8037354 12.97945738 95.65061553 13.1875 101.5 C13.21985748 102.47564911 13.25221497 103.45129822 13.28555298 104.45651245 C13.38318825 107.30484566 13.49354512 110.15235366 13.609375 113 C13.65468605 114.27303734 13.65468605 114.27303734 13.70091248 115.5717926 C14.10872798 124.53883928 15.81406432 134.78205429 22.1875 141.5 C29.89996068 146.74044899 38.77703571 146.0472875 47.6953125 145.9609375 C49.32686275 145.95926371 50.95841526 145.95915133 52.58996582 145.960495 C56.93509632 145.95830585 61.27966697 145.92981664 65.62464142 145.89467239 C68.31509585 145.874981 71.005475 145.86288321 73.69598389 145.85348511 C103.6408599 145.74812415 133.61915996 145.3862907 163.48339844 143.00097656 C185.21976826 141.31256131 207.04371495 141.31175091 228.83251953 141.31469727 C231.9966395 141.31477905 235.16061627 141.30772992 238.32470703 141.29418945 C268.59829673 141.16695289 268.59829673 141.16695289 281.44921875 142.36328125 C282.25197235 142.43787064 283.05472595 142.51246002 283.88180542 142.58930969 C291.60131986 143.44418563 298.27714687 145.95997058 305.1875 149.5 C306.04553223 149.93699219 306.90356445 150.37398437 307.78759766 150.82421875 C318.42875497 156.31120915 328.90015766 161.88813466 338.1875 169.5 C338.71134277 169.9213623 339.23518555 170.34272461 339.77490234 170.77685547 C350.64124823 179.54023834 362.55862743 189.24467303 364.515625 203.96875 C365.21266412 220.89684297 356.28212864 234.62384695 347.3125 248.1875 C346.67554199 249.15993652 346.03858398 250.13237305 345.38232422 251.13427734 C341.85809576 256.50163185 338.29043302 261.83770358 334.6875 267.15234375 C333.95644043 268.23491455 333.22538086 269.31748535 332.47216797 270.43286133 C331.05673162 272.52497418 329.6341206 274.61225486 328.20361328 276.6940918 C327.56149902 277.64324463 326.91938477 278.59239746 326.2578125 279.5703125 C325.68820801 280.40320801 325.11860352 281.23610352 324.53173828 282.09423828 C323.08427063 284.68474795 322.34084864 286.53195218 322.1875 289.5 C323.29614322 291.41669232 323.29614322 291.41669232 325.125 292.98828125 C325.76888672 293.60767578 326.41277344 294.22707031 327.07617188 294.86523438 C328.1212793 295.82913086 328.1212793 295.82913086 329.1875 296.8125 C330.59545516 298.16098231 332.00173188 299.51121945 333.40625 300.86328125 C334.04498047 301.46438721 334.68371094 302.06549316 335.34179688 302.68481445 C337.23374498 304.54548035 338.96167164 306.48499324 340.6875 308.5 C344.28186929 312.66256525 348.11791667 316.54451195 352 320.4375 C352.67160156 321.11361328 353.34320312 321.78972656 354.03515625 322.48632812 C354.669375 323.11861328 355.30359375 323.75089844 355.95703125 324.40234375 C356.53042236 324.97460693 357.10381348 325.54687012 357.69458008 326.13647461 C359.16127378 327.60062576 359.16127378 327.60062576 361.1875 328.5 C362.00216872 357.37932565 362.45739541 386.25097927 362.53759766 415.1418457 C362.55114401 419.55415614 362.57946736 423.96602664 362.61962891 428.37817383 C362.66916211 433.8342607 362.69373069 439.28993874 362.70082474 444.74624062 C362.7074569 446.78533826 362.7224629 448.82442958 362.74671555 450.86339378 C362.92018322 466.25315679 361.98452133 480.56927881 351.390625 492.80078125 C348.21072764 495.25336166 345.77477233 495.31268423 341.875 494.8515625 C341.318125 494.73554687 340.76125 494.61953125 340.1875 494.5 C337.13835817 488.40171634 339.38918566 479.22511554 340.25512695 472.70922852 C342.22725748 457.501218 342.49771841 442.38482487 342.5 427.0625 C342.50322266 426.00069519 342.50644531 424.93889038 342.50976562 423.84490967 C342.53130519 412.22902729 342.37280272 400.94688333 340.1875 389.5 C337.20923665 400.2367978 335.52131714 411.1088675 333.8125 422.09936523 C331.37366703 437.69932222 331.37366703 437.69932222 328.89746094 444.33178711 C327.32321715 449.13951031 326.68396914 454.21463861 325.8125 459.1875 C322.66882112 475.99319064 317.70418172 494.70832574 304.1875 506.5 C303.5275 506.5 302.8675 506.5 302.1875 506.5 C302.1875 507.16 302.1875 507.82 302.1875 508.5 C291.62941344 509.05353075 291.62941344 509.05353075 287.1875 505.5 C287.45298905 499.52649645 289.61712793 495.46947992 292.6171875 490.34375 C304.5108124 468.80504621 307.64086156 443.5917515 311.57641602 419.68066406 C311.77291748 418.49827148 311.96941895 417.31587891 312.171875 416.09765625 C312.34428711 415.04070557 312.51669922 413.98375488 312.69433594 412.89477539 C313.1875 410.5 313.1875 410.5 314.1875 409.5 C315.35056121 402.21148305 315.46430041 394.73761896 315.75 387.375 C315.79318359 386.323125 315.83636719 385.27125 315.88085938 384.1875 C315.98568509 381.62509373 316.08785355 379.06261201 316.1875 376.5 C315.5275 376.5 314.8675 376.5 314.1875 376.5 C314.07535156 375.96375 313.96320313 375.4275 313.84765625 374.875 C310.74770569 362.55624224 303.4106596 351.05361232 295.1875 341.5 C294.25894205 340.4116055 293.33057271 339.32305009 292.40234375 338.234375 C290.85141216 336.41989941 289.29778791 334.60796135 287.73779297 332.80126953 C284.5975651 329.16433791 281.52203108 325.4865218 278.5 321.75 C274.895877 317.31164961 271.1387428 313.04609578 267.29296875 308.81640625 C262.10066212 303.10390564 257.08917193 297.23295024 252.0625 291.375 C251.55936279 290.78879883 251.05622559 290.20259766 250.5378418 289.59863281 C249.56061233 288.45780789 248.58538104 287.31526785 247.61230469 286.17089844 C246.65088619 285.04342274 245.68259547 283.921776 244.70800781 282.80566406 C241.1875 278.72028941 241.1875 278.72028941 241.1875 276.5 C236.80214374 278.61146783 232.66080997 280.8115961 228.5625 283.4375 C216.51194104 290.75655115 202.10231099 294.15340539 188.1875 295.5 C187.5275 295.83 186.8675 296.16 186.1875 296.5 C173.80062164 297.84660471 161.21479969 297.95601522 148.77294922 298.42993164 C145.32633052 298.56197016 141.87997265 298.69975085 138.43359375 298.83789062 C126.34504735 299.31030833 114.28543523 299.64239069 102.1875 299.5 C100.69573219 307.64988525 99.69752556 315.72089194 99.125 323.984375 C99.04193604 325.14499451 98.95887207 326.30561401 98.87329102 327.50140381 C97.8992394 341.77049377 97.49755448 356.0589158 97.08300781 370.35302734 C96.41188767 393.02642122 96.41188767 393.02642122 95.2109375 400.796875 C94.09608697 408.03206946 93.78721717 415.25222281 93.4765625 422.5625 C93.39326691 424.48905426 93.39326691 424.48905426 93.30828857 426.45452881 C93.08101467 431.82181675 92.86012465 437.18920225 92.66113281 442.55761719 C91.13263756 483.29426393 91.13263756 483.29426393 77.5625 497.1875 C71.27448408 499.63283952 63.65581279 499.44049384 57.1875 497.5 C57.69824093 492.94976264 58.7768119 490.12602653 61.375 486.375 C63.94521563 482.47736848 66.33703906 478.57695973 68.5 474.4375 C69.20576172 473.08978516 69.20576172 473.08978516 69.92578125 471.71484375 C73.0165158 463.83969039 73.49496772 455.83745206 73.48828125 447.45703125 C73.49661232 445.90549599 73.49661232 445.90549599 73.50511169 444.32261658 C73.51686144 440.98576574 73.510641 437.64935048 73.5 434.3125 C73.49776428 432.6021759 73.49776428 432.6021759 73.4954834 430.8572998 C73.4361855 405.65923341 71.55790962 381.22135138 66.75537109 356.4453125 C66.1268781 353.18557928 65.52569055 349.92136 64.92578125 346.65625 C64.49319322 344.33314583 64.05961785 342.01022527 63.625 339.6875 C63.42729004 338.61975342 63.22958008 337.55200684 63.02587891 336.4519043 C61.67018533 325.76617072 61.67018533 325.76617072 57.1875 316.5 C52.04907533 318.59392467 47.27789157 320.99566203 42.5 323.8125 C41.7773999 324.23837402 41.0547998 324.66424805 40.31030273 325.10302734 C27.40230964 332.85139388 14.51306684 341.54293915 3.1875 351.5 C2.50558594 352.0878125 1.82367188 352.675625 1.12109375 353.28125 C-1.29803201 356.05713572 -2.51384093 358.96027626 -3.75 362.375 C-4.00160889 363.05320801 -4.25321777 363.73141602 -4.51245117 364.43017578 C-7.6260152 373.22959125 -9.46251706 382.37921949 -11.33520508 391.50732422 C-11.8125 393.5 -11.8125 393.5 -12.8125 395.5 C-13.01871621 396.93366805 -13.17887858 398.3741599 -13.3125 399.81640625 C-13.395 400.66267578 -13.4775 401.50894531 -13.5625 402.38085938 C-13.7295277 404.17249242 -13.89619281 405.9641593 -14.0625 407.75585938 C-14.145 408.60083984 -14.2275 409.44582031 -14.3125 410.31640625 C-14.3846875 411.09443604 -14.456875 411.87246582 -14.53125 412.67407227 C-14.8125 414.5 -14.8125 414.5 -15.8125 415.5 C-16.08870707 417.28354626 -16.30494778 419.07643756 -16.49609375 420.87109375 C-16.61791016 421.99467285 -16.73972656 423.11825195 -16.86523438 424.27587891 C-16.99220703 425.48421387 -17.11917969 426.69254883 -17.25 427.9375 C-17.38341797 429.16130371 -17.51683594 430.38510742 -17.65429688 431.64599609 C-18.24621019 437.08831017 -18.82158744 442.53138422 -19.34765625 447.98046875 C-21.26014118 467.46205097 -21.26014118 467.46205097 -26.6875 472.625 C-29.8125 474.5 -29.8125 474.5 -32.6875 474.3125 C-33.38875 474.044375 -34.09 473.77625 -34.8125 473.5 C-38.23629525 451.97777604 -35.94969376 428.89449643 -32.8125 407.5 C-32.60003259 405.9856601 -32.38867113 404.47116476 -32.17822266 402.95654297 C-26.666422 363.43145343 -20.33541668 334.47915241 8.8828125 305.87109375 C11.60801499 303.16112436 13.90622653 300.38216323 16.0625 297.1875 C16.63742188 296.34574219 17.21234375 295.50398438 17.8046875 294.63671875 C20.36526119 290.68012607 20.80340468 288.2732613 20.1875 283.5 C17.63949324 279.48752423 14.04659586 276.33652301 10.66015625 273.0390625 C-0.14108961 262.47026813 -9.65117787 250.87874507 -16.8125 237.5 C-16.8125 236.84 -16.8125 236.18 -16.8125 235.5 C-17.4725 235.5 -18.1325 235.5 -18.8125 235.5 C-20.44185734 232.94390781 -21.95508766 230.38988568 -23.4375 227.75 C-26.50119837 222.40852299 -29.60943532 217.16210324 -33.0625 212.0625 C-33.701875 211.11375 -34.34125 210.165 -35 209.1875 C-36.16633366 207.4581087 -37.3329755 205.72892518 -38.5 204 C-47.57539592 189.84238236 -49.62464184 172.14592097 -50.57421875 155.66796875 C-50.85202614 151.97449674 -51.48071389 148.4531847 -52.21875 144.828125 C-52.72274376 142.00310733 -53.11677915 139.2058369 -53.46875 136.359375 C-53.58750488 135.42875244 -53.70625977 134.49812988 -53.82861328 133.53930664 C-54.06349919 131.67284249 -54.28631617 129.8048101 -54.49560547 127.93530273 C-55.19125224 122.53430919 -56.072909 118.6957954 -59.8125 114.5 C-64.23110536 111.8672393 -67.83895748 111.03433331 -72.94140625 110.65625 C-73.61235825 110.60102173 -74.28331024 110.54579346 -74.97459412 110.4888916 C-77.10732916 110.31417379 -79.24077941 110.15543615 -81.375 110 C-111.62284894 107.75786641 -111.62284894 107.75786641 -119.8125 98.5 C-121.30940099 95.37603273 -121.52217623 92.88896115 -120.8125 89.5 C-113.67622204 78.98932817 -101.01040033 71.70843429 -90.8125 64.5 C-90.21679199 64.07477051 -89.62108398 63.64954102 -89.00732422 63.21142578 C-85.31698589 60.57867757 -81.57728064 58.02445365 -77.8125 55.5 C-77.07418945 55.00113281 -76.33587891 54.50226563 -75.57519531 53.98828125 C-48.50519781 35.76122176 -48.50519781 35.76122176 -35.8125 33.0625 C-27.28812706 31.02378599 -23.42604798 23.51482182 -18.9375 16.5625 C-7.82843283 -0.35110911 -7.82843283 -0.35110911 0 0 Z " fill="#020202" transform="translate(170.8125,39.5)"/>
</svg>
